<svg width="260" height="67" viewBox="0 0 260 67" fill="none" xmlns="http://www.w3.org/2000/svg">
<path d="M11.52 38.704C11.52 40.88 11.5627 43.0347 11.648 45.168C11.7333 47.3013 11.8187 49.456 11.904 51.632C12.7147 51.7173 13.6747 51.8027 14.784 51.888C15.8933 51.9307 17.024 51.952 18.176 51.952C19.5413 51.952 20.8427 51.7173 22.08 51.248C23.36 50.7787 24.4693 50.096 25.408 49.2C26.3467 48.2613 27.0933 47.1307 27.648 45.808C28.2027 44.4427 28.48 42.9067 28.48 41.2C28.48 39.3653 28.1387 37.872 27.456 36.72C26.816 35.5253 25.8773 34.608 24.64 33.968C23.4027 33.2853 21.9093 32.816 20.16 32.56C18.4533 32.304 16.5333 32.176 14.4 32.176H11.52V38.704ZM14.976 29.808C16.4693 29.808 17.9413 29.6587 19.392 29.36C20.8853 29.0613 22.208 28.5707 23.36 27.888C24.512 27.1627 25.4293 26.224 26.112 25.072C26.8373 23.8773 27.2 22.384 27.2 20.592C27.2 18.8427 26.88 17.456 26.24 16.432C25.6 15.3653 24.7893 14.5547 23.808 14C22.8267 13.4027 21.7173 13.0187 20.48 12.848C19.2427 12.6347 18.0053 12.528 16.768 12.528C15.6587 12.528 14.72 12.5707 13.952 12.656C13.184 12.6987 12.5013 12.7627 11.904 12.848C11.8187 14.896 11.7333 16.9227 11.648 18.928C11.5627 20.9333 11.52 22.96 11.52 25.008V29.808H14.976ZM6.272 26.672C6.272 23.856 6.208 21.0827 6.08 18.352C5.99467 15.6213 5.888 12.8907 5.76 10.16C6.86933 10.2453 8 10.3307 9.152 10.416C10.304 10.4587 11.4347 10.48 12.544 10.48C13.6533 10.48 14.784 10.4373 15.936 10.352C17.088 10.224 18.2187 10.16 19.328 10.16C21.1627 10.16 22.8907 10.3093 24.512 10.608C26.1333 10.864 27.5627 11.3547 28.8 12.08C30.0373 12.7627 31.0187 13.7013 31.744 14.896C32.4693 16.0907 32.832 17.584 32.832 19.376C32.832 22.5333 31.8293 25.008 29.824 26.8C27.8613 28.592 25.28 29.8507 22.08 30.576V30.704C25.8773 30.8747 28.864 31.792 31.04 33.456C33.2587 35.12 34.368 37.7867 34.368 41.456C34.368 43.8453 33.8773 45.8507 32.896 47.472C31.9147 49.0933 30.6347 50.416 29.056 51.44C27.4773 52.4213 25.728 53.1253 23.808 53.552C21.9307 53.936 20.0533 54.128 18.176 54.128C17.152 54.128 16.1067 54.1067 15.04 54.064C14.016 54.0213 12.992 54 11.968 54C10.944 54 9.89867 54 8.832 54C7.808 54 6.784 54.0427 5.76 54.128C5.888 51.3973 5.99467 48.688 6.08 46C6.208 43.2693 6.272 40.496 6.272 37.68V26.672ZM55.109 42.144C54.565 42.336 53.925 42.496 53.189 42.624C52.485 42.752 51.765 42.896 51.029 43.056C50.293 43.184 49.557 43.36 48.821 43.584C48.117 43.808 47.477 44.112 46.901 44.496C46.357 44.88 45.909 45.36 45.557 45.936C45.237 46.512 45.077 47.248 45.077 48.144C45.077 49.648 45.509 50.784 46.373 51.552C47.237 52.32 48.197 52.704 49.253 52.704C50.469 52.704 51.573 52.368 52.565 51.696C53.589 51.024 54.373 50.24 54.917 49.344L55.109 42.144ZM43.253 33.6C44.693 32.512 46.021 31.776 47.237 31.392C48.453 31.008 49.701 30.816 50.981 30.816C52.133 30.816 53.189 30.992 54.149 31.344C55.109 31.664 55.925 32.144 56.597 32.784C57.269 33.392 57.797 34.144 58.181 35.04C58.565 35.904 58.757 36.864 58.757 37.92C58.757 39.744 58.725 41.568 58.661 43.392C58.597 45.184 58.565 47.088 58.565 49.104C58.565 49.488 58.565 49.904 58.565 50.352C58.597 50.768 58.677 51.152 58.805 51.504C58.933 51.824 59.109 52.096 59.333 52.32C59.589 52.544 59.957 52.656 60.437 52.656C60.597 52.656 60.757 52.656 60.917 52.656C61.109 52.624 61.285 52.56 61.445 52.464V53.52C61.093 53.68 60.645 53.808 60.101 53.904C59.589 54 59.013 54.048 58.373 54.048C57.349 54.048 56.565 53.792 56.021 53.28C55.477 52.736 55.157 52.048 55.061 51.216C53.909 52.368 52.773 53.216 51.653 53.76C50.533 54.304 49.157 54.576 47.525 54.576C46.725 54.576 45.941 54.464 45.173 54.24C44.405 54.016 43.717 53.648 43.109 53.136C42.533 52.624 42.053 52.016 41.669 51.312C41.317 50.576 41.141 49.744 41.141 48.816C41.141 46.896 41.733 45.408 42.917 44.352C44.133 43.296 45.797 42.592 47.909 42.24C49.637 41.952 50.981 41.712 51.941 41.52C52.933 41.296 53.653 41.072 54.101 40.848C54.581 40.624 54.869 40.368 54.965 40.08C55.061 39.76 55.109 39.36 55.109 38.88C55.109 38.08 55.013 37.312 54.821 36.576C54.629 35.84 54.325 35.2 53.909 34.656C53.493 34.112 52.949 33.68 52.277 33.36C51.605 33.008 50.789 32.832 49.829 32.832C48.549 32.832 47.349 33.12 46.229 33.696C45.141 34.272 44.325 35.072 43.781 36.096H43.253V33.6ZM83.573 41.952C83.573 40.48 83.381 39.184 82.997 38.064C82.645 36.912 82.165 35.952 81.557 35.184C80.981 34.416 80.293 33.84 79.493 33.456C78.725 33.04 77.925 32.832 77.093 32.832C76.101 32.832 75.141 33.024 74.213 33.408C73.317 33.76 72.533 34.368 71.861 35.232C71.189 36.064 70.645 37.168 70.229 38.544C69.845 39.888 69.653 41.552 69.653 43.536C69.653 49.968 71.989 53.184 76.661 53.184C77.653 53.184 78.565 52.928 79.397 52.416C80.229 51.872 80.949 51.104 81.557 50.112C82.197 49.12 82.693 47.936 83.045 46.56C83.397 45.184 83.573 43.648 83.573 41.952ZM87.797 42.096C87.797 43.952 87.509 45.648 86.933 47.184C86.389 48.72 85.621 50.048 84.629 51.168C83.669 52.256 82.517 53.104 81.173 53.712C79.861 54.288 78.437 54.576 76.901 54.576C75.365 54.576 73.973 54.256 72.725 53.616C71.509 52.944 70.581 52.144 69.941 51.216C68.789 52.144 67.717 53.072 66.725 54H65.861C65.925 53.232 65.973 52.304 66.005 51.216C66.069 50.128 66.117 48.976 66.149 47.76C66.181 46.512 66.197 45.248 66.197 43.968C66.229 42.688 66.245 41.504 66.245 40.416V31.728C66.245 30.64 66.229 29.456 66.197 28.176C66.197 26.896 66.181 25.632 66.149 24.384C66.117 23.136 66.069 21.952 66.005 20.832C65.973 19.68 65.925 18.704 65.861 17.904C66.757 18.064 67.477 18.144 68.021 18.144C68.373 18.144 68.741 18.128 69.125 18.096C69.509 18.032 69.925 17.968 70.373 17.904C70.277 18.544 70.197 19.568 70.133 20.976C70.069 22.352 70.021 23.904 69.989 25.632C69.957 27.328 69.925 29.088 69.893 30.912C69.861 32.704 69.829 34.336 69.797 35.808H69.893C70.981 34.08 72.181 32.816 73.493 32.016C74.805 31.216 76.325 30.816 78.053 30.816C79.717 30.816 81.157 31.136 82.373 31.776C83.589 32.384 84.597 33.2 85.397 34.224C86.197 35.248 86.789 36.448 87.173 37.824C87.589 39.168 87.797 40.592 87.797 42.096ZM99.6091 54.144C99.2571 53.28 98.7931 52.16 98.2171 50.784C97.6731 49.408 97.0811 47.968 96.4411 46.464C95.8011 44.928 95.1451 43.376 94.4731 41.808C93.8011 40.208 93.1611 38.72 92.5531 37.344C91.9771 35.936 91.4651 34.704 91.0171 33.648C90.5691 32.592 90.2331 31.808 90.0091 31.296C90.4251 31.36 90.8091 31.424 91.1611 31.488C91.5131 31.52 91.8651 31.536 92.2171 31.536C92.5691 31.536 92.9211 31.52 93.2731 31.488C93.6251 31.424 94.0091 31.36 94.4251 31.296C95.4171 34.368 96.5211 37.408 97.7371 40.416C98.9531 43.424 100.233 46.528 101.577 49.728C102.921 46.912 104.201 43.904 105.417 40.704C106.665 37.504 107.769 34.368 108.729 31.296C109.369 31.456 109.897 31.536 110.313 31.536C110.729 31.536 111.257 31.456 111.897 31.296C111.673 31.744 111.305 32.512 110.793 33.6C110.313 34.656 109.721 35.936 109.017 37.44C108.345 38.912 107.593 40.56 106.761 42.384C105.961 44.176 105.129 46.032 104.265 47.952C103.433 49.84 102.601 51.728 101.769 53.616C100.937 55.472 100.169 57.232 99.4651 58.896C98.7611 60.592 98.1371 62.112 97.5931 63.456C97.0811 64.832 96.6971 65.92 96.4411 66.72C95.8011 66.56 95.2571 66.48 94.8091 66.48C94.3611 66.48 93.8171 66.56 93.1771 66.72C95.7051 62.528 97.8491 58.336 99.6091 54.144ZM130.057 40.272C130.057 38.832 130.025 37.328 129.961 35.76C129.929 34.16 129.833 32.672 129.673 31.296C130.569 31.456 131.289 31.536 131.833 31.536C132.089 31.536 132.361 31.52 132.648 31.488C132.969 31.424 133.337 31.36 133.753 31.296C133.657 32.576 133.609 33.856 133.609 35.136H133.705C135.401 32.256 137.785 30.816 140.857 30.816C141.657 30.816 142.441 30.944 143.209 31.2C143.977 31.424 144.665 31.744 145.273 32.16C145.913 32.576 146.457 33.088 146.905 33.696C147.353 34.272 147.657 34.896 147.817 35.568H147.913C148.681 34.032 149.721 32.864 151.033 32.064C152.377 31.232 153.913 30.816 155.641 30.816C156.697 30.816 157.673 30.96 158.569 31.248C159.465 31.536 160.233 31.984 160.873 32.592C161.545 33.2 162.057 33.984 162.409 34.944C162.793 35.904 162.985 37.056 162.985 38.4C162.985 38.944 162.969 39.536 162.937 40.176C162.905 40.816 162.873 41.568 162.841 42.432C162.809 43.264 162.777 44.224 162.745 45.312C162.713 46.368 162.697 47.6 162.697 49.008C162.697 49.872 162.697 50.704 162.697 51.504C162.729 52.304 162.777 53.168 162.841 54.096C162.489 54.032 162.137 54 161.785 54C161.433 54 161.097 54 160.777 54C160.425 54 160.073 54 159.721 54C159.369 54 159.017 54.032 158.665 54.096C158.761 53.296 158.857 51.68 158.953 49.248C159.081 46.816 159.145 43.424 159.145 39.072C159.145 38.272 159.049 37.52 158.857 36.816C158.697 36.112 158.425 35.504 158.041 34.992C157.657 34.48 157.145 34.08 156.505 33.792C155.865 33.472 155.065 33.312 154.105 33.312C152.953 33.312 151.977 33.536 151.177 33.984C150.377 34.432 149.753 34.96 149.305 35.568C149.049 35.92 148.841 36.272 148.681 36.624C148.553 36.976 148.441 37.52 148.345 38.256C148.281 38.96 148.233 39.968 148.201 41.28C148.169 42.56 148.153 44.336 148.153 46.608C148.153 47.984 148.169 49.248 148.201 50.4C148.265 51.52 148.329 52.752 148.393 54.096C147.657 54.032 146.953 54 146.281 54C145.609 54 144.905 54.032 144.169 54.096C144.329 52.336 144.441 50.544 144.505 48.72C144.569 46.896 144.601 45.104 144.601 43.344C144.601 41.84 144.585 40.672 144.553 39.84C144.553 38.976 144.521 38.304 144.457 37.824C144.393 37.312 144.297 36.896 144.169 36.576C144.073 36.256 143.929 35.904 143.737 35.52C143.385 34.912 142.825 34.4 142.057 33.984C141.321 33.536 140.553 33.312 139.753 33.312C137.641 33.312 136.089 34 135.097 35.376C134.105 36.752 133.609 38.688 133.609 41.184V45.264C133.609 46.704 133.625 48.224 133.657 49.824C133.721 51.392 133.833 52.816 133.993 54.096C133.257 54.032 132.537 54 131.833 54C131.129 54 130.409 54.032 129.673 54.096C129.833 52.816 129.929 51.392 129.961 49.824C130.025 48.224 130.057 46.704 130.057 45.264V40.272ZM172.201 42.768C172.201 44.112 172.313 45.408 172.537 46.656C172.793 47.904 173.209 49.024 173.785 50.016C174.361 50.976 175.129 51.744 176.089 52.32C177.049 52.896 178.233 53.184 179.641 53.184C181.049 53.184 182.233 52.896 183.193 52.32C184.153 51.744 184.921 50.976 185.497 50.016C186.073 49.024 186.473 47.904 186.697 46.656C186.953 45.408 187.081 44.112 187.081 42.768C187.081 41.424 186.953 40.128 186.697 38.88C186.473 37.632 186.073 36.528 185.497 35.568C184.921 34.576 184.153 33.792 183.193 33.216C182.233 32.64 181.049 32.352 179.641 32.352C178.233 32.352 177.049 32.64 176.089 33.216C175.129 33.792 174.361 34.576 173.785 35.568C173.209 36.528 172.793 37.632 172.537 38.88C172.313 40.128 172.201 41.424 172.201 42.768ZM167.977 42.768C167.977 40.592 168.313 38.752 168.985 37.248C169.689 35.712 170.601 34.48 171.721 33.552C172.841 32.592 174.089 31.904 175.465 31.488C176.873 31.04 178.265 30.816 179.641 30.816C181.049 30.816 182.441 31.04 183.817 31.488C185.193 31.904 186.441 32.592 187.561 33.552C188.681 34.48 189.577 35.712 190.249 37.248C190.953 38.752 191.305 40.592 191.305 42.768C191.305 44.944 190.953 46.8 190.249 48.336C189.577 49.84 188.681 51.072 187.561 52.032C186.441 52.96 185.193 53.616 183.817 54C182.441 54.384 181.049 54.576 179.641 54.576C178.265 54.576 176.873 54.384 175.465 54C174.089 53.616 172.841 52.96 171.721 52.032C170.601 51.072 169.689 49.84 168.985 48.336C168.313 46.8 167.977 44.944 167.977 42.768ZM202.726 54.096C201.254 50.32 199.766 46.544 198.262 42.768C196.79 38.992 195.174 35.168 193.414 31.296C193.83 31.36 194.23 31.424 194.614 31.488C194.998 31.52 195.398 31.536 195.814 31.536C196.166 31.536 196.518 31.52 196.87 31.488C197.222 31.424 197.574 31.36 197.926 31.296C198.918 34.464 199.99 37.584 201.142 40.656C202.326 43.696 203.638 46.816 205.078 50.016C205.718 48.704 206.342 47.296 206.95 45.792C207.59 44.256 208.214 42.672 208.822 41.04C209.462 39.408 210.07 37.776 210.646 36.144C211.254 34.48 211.846 32.864 212.422 31.296C212.998 31.456 213.494 31.536 213.91 31.536C214.326 31.536 214.822 31.456 215.398 31.296C213.67 35.168 211.974 38.992 210.31 42.768C208.646 46.544 207.126 50.32 205.75 54.096C205.27 54.032 204.774 54 204.262 54C203.75 54 203.238 54.032 202.726 54.096ZM228.612 32.352C227.428 32.352 226.42 32.624 225.588 33.168C224.788 33.712 224.116 34.4 223.572 35.232C223.06 36.032 222.66 36.928 222.372 37.92C222.116 38.88 221.956 39.792 221.892 40.656C222.884 40.688 223.908 40.72 224.964 40.752C226.052 40.784 227.108 40.8 228.132 40.8C229.188 40.8 230.26 40.784 231.348 40.752C232.436 40.72 233.492 40.688 234.516 40.656C234.516 39.792 234.436 38.88 234.276 37.92C234.148 36.96 233.86 36.064 233.412 35.232C232.996 34.4 232.404 33.712 231.636 33.168C230.868 32.624 229.86 32.352 228.612 32.352ZM217.524 43.44C217.524 39.504 218.452 36.416 220.308 34.176C222.196 31.936 224.932 30.816 228.516 30.816C230.212 30.816 231.668 31.088 232.884 31.632C234.132 32.144 235.172 32.848 236.004 33.744C236.836 34.608 237.444 35.632 237.828 36.816C238.244 38 238.452 39.264 238.452 40.608C238.452 40.928 238.436 41.248 238.404 41.568C238.404 41.856 238.388 42.16 238.356 42.48C236.628 42.448 234.916 42.416 233.22 42.384C231.524 42.352 229.812 42.336 228.084 42.336C227.028 42.336 225.972 42.352 224.916 42.384C223.892 42.416 222.852 42.448 221.796 42.48C221.764 42.64 221.748 42.88 221.748 43.2V43.824C221.748 45.072 221.924 46.24 222.276 47.328C222.66 48.416 223.204 49.36 223.908 50.16C224.612 50.928 225.476 51.552 226.5 52.032C227.524 52.48 228.708 52.704 230.052 52.704C230.692 52.704 231.348 52.624 232.02 52.464C232.692 52.272 233.348 52.032 233.988 51.744C234.628 51.424 235.22 51.056 235.764 50.64C236.34 50.224 236.836 49.776 237.252 49.296L237.492 49.44L237.204 51.792C236.244 52.56 235.044 53.216 233.604 53.76C232.196 54.304 230.724 54.576 229.188 54.576C227.46 54.576 225.876 54.32 224.436 53.808C223.028 53.264 221.796 52.496 220.74 51.504C219.716 50.48 218.916 49.28 218.34 47.904C217.796 46.528 217.524 45.04 217.524 43.44ZM243.252 49.632C243.412 49.952 243.652 50.304 243.972 50.688C244.324 51.072 244.724 51.44 245.172 51.792C245.652 52.112 246.18 52.384 246.756 52.608C247.364 52.832 248.004 52.944 248.676 52.944C249.284 52.944 249.86 52.848 250.404 52.656C250.98 52.464 251.476 52.192 251.892 51.84C252.34 51.488 252.692 51.04 252.948 50.496C253.204 49.952 253.332 49.328 253.332 48.624C253.332 47.632 253.044 46.88 252.468 46.368C251.924 45.824 251.236 45.392 250.404 45.072C249.572 44.72 248.66 44.416 247.668 44.16C246.676 43.904 245.764 43.552 244.932 43.104C244.1 42.624 243.396 42 242.82 41.232C242.276 40.464 242.004 39.408 242.004 38.064C242.004 37.008 242.18 36.048 242.532 35.184C242.884 34.288 243.396 33.52 244.068 32.88C244.74 32.24 245.572 31.744 246.564 31.392C247.556 31.008 248.692 30.816 249.972 30.816C251.156 30.816 252.148 30.976 252.948 31.296C253.78 31.616 254.564 31.904 255.3 32.16C255.044 32.64 254.804 33.232 254.58 33.936C254.356 34.64 254.212 35.184 254.148 35.568H253.572C253.316 34.8 252.82 34.112 252.084 33.504C251.348 32.896 250.436 32.592 249.348 32.592C248.868 32.592 248.388 32.672 247.908 32.832C247.428 32.992 246.996 33.232 246.612 33.552C246.228 33.872 245.908 34.288 245.652 34.8C245.396 35.312 245.268 35.92 245.268 36.624C245.268 37.648 245.54 38.448 246.084 39.024C246.66 39.568 247.364 40 248.196 40.32C249.028 40.64 249.94 40.928 250.932 41.184C251.924 41.408 252.836 41.744 253.668 42.192C254.5 42.608 255.188 43.2 255.732 43.968C256.308 44.736 256.596 45.792 256.596 47.136C256.596 48.064 256.388 48.976 255.972 49.872C255.588 50.768 255.012 51.584 254.244 52.32C253.508 53.024 252.612 53.584 251.556 54C250.5 54.384 249.3 54.576 247.956 54.576C246.484 54.576 245.252 54.432 244.26 54.144C243.268 53.856 242.436 53.52 241.764 53.136C241.956 52.72 242.148 52.16 242.34 51.456C242.564 50.72 242.676 50.112 242.676 49.632H243.252Z" fill="#897588"/>
<path d="M101.198 15.478V17.746H100.694V16H92.918V17.746H92.414V15.496H93.08L96.842 7.666L100.604 15.478H101.198ZM100.028 15.478L96.842 8.854L93.656 15.478H100.028ZM102.649 7.9H104.665C105.157 7.9 105.541 8.05 105.817 8.35C106.093 8.638 106.231 9.004 106.231 9.448C106.231 10.132 105.937 10.606 105.349 10.87C105.985 10.978 106.459 11.236 106.771 11.644C107.083 12.052 107.239 12.652 107.239 13.444C107.239 13.912 107.125 14.344 106.897 14.74C106.681 15.124 106.375 15.43 105.979 15.658C105.595 15.886 105.169 16 104.701 16H102.649V7.9ZM104.575 10.69C104.923 10.69 105.187 10.588 105.367 10.384C105.559 10.168 105.655 9.856 105.655 9.448C105.655 9.1 105.559 8.836 105.367 8.656C105.175 8.476 104.899 8.386 104.539 8.386H103.225V10.69H104.575ZM104.737 15.514C105.277 15.514 105.733 15.31 106.105 14.902C106.477 14.482 106.663 13.972 106.663 13.372C106.663 12.664 106.477 12.124 106.105 11.752C105.745 11.368 105.229 11.176 104.557 11.176H103.225V15.514H104.737ZM109.258 7.9H109.816V15.19L115.63 7.9H116.152V16H115.594V8.728L109.762 16H109.258V7.9ZM122.33 11.14L119.162 7.9H119.81L122.402 10.51V7.9H122.978V10.51L125.57 7.9H126.218L123.05 11.14L127.784 16H127.01L122.978 11.842V16H122.402V11.842L118.37 16H117.596L122.33 11.14ZM132.232 15.712C132.856 15.712 133.45 15.55 134.014 15.226C134.578 14.902 135.046 14.458 135.418 13.894V14.812C134.974 15.304 134.488 15.664 133.96 15.892C133.432 16.108 132.832 16.216 132.16 16.216C131.416 16.216 130.714 16.018 130.054 15.622C129.406 15.226 128.884 14.698 128.488 14.038C128.104 13.378 127.912 12.676 127.912 11.932C127.912 11.128 128.104 10.408 128.488 9.772C128.872 9.124 129.394 8.62 130.054 8.26C130.726 7.9 131.47 7.72 132.286 7.72C133.534 7.72 134.596 8.212 135.472 9.196L129.82 14.776C130.216 15.1 130.6 15.34 130.972 15.496C131.344 15.64 131.764 15.712 132.232 15.712ZM128.488 11.878C128.488 12.874 128.818 13.726 129.478 14.434L134.752 9.196C134.356 8.848 133.972 8.602 133.6 8.458C133.228 8.302 132.784 8.224 132.268 8.224C131.536 8.224 130.882 8.386 130.306 8.71C129.742 9.022 129.298 9.454 128.974 10.006C128.65 10.558 128.488 11.182 128.488 11.878ZM137.489 7.9H138.065V12.454H143.555V7.9H144.131V16H143.555V12.958H138.065V16H137.489V7.9ZM146.823 7.9H147.381V15.19L153.195 7.9H153.717V16H153.159V8.728L147.327 16H146.823V7.9ZM160.146 15.712C160.77 15.712 161.364 15.55 161.928 15.226C162.492 14.902 162.96 14.458 163.332 13.894V14.812C162.888 15.304 162.402 15.664 161.874 15.892C161.346 16.108 160.746 16.216 160.074 16.216C159.33 16.216 158.628 16.018 157.968 15.622C157.32 15.226 156.798 14.698 156.402 14.038C156.018 13.378 155.826 12.676 155.826 11.932C155.826 11.128 156.018 10.408 156.402 9.772C156.786 9.124 157.308 8.62 157.968 8.26C158.64 7.9 159.384 7.72 160.2 7.72C161.448 7.72 162.51 8.212 163.386 9.196L157.734 14.776C158.13 15.1 158.514 15.34 158.886 15.496C159.258 15.64 159.678 15.712 160.146 15.712ZM156.402 11.878C156.402 12.874 156.732 13.726 157.392 14.434L162.666 9.196C162.27 8.848 161.886 8.602 161.514 8.458C161.142 8.302 160.698 8.224 160.182 8.224C159.45 8.224 158.796 8.386 158.22 8.71C157.656 9.022 157.212 9.454 156.888 10.006C156.564 10.558 156.402 11.182 156.402 11.878ZM172.958 16.234C172.178 16.234 171.458 16.048 170.798 15.676C170.15 15.304 169.634 14.794 169.25 14.146C168.866 13.498 168.674 12.766 168.674 11.95C168.674 11.194 168.866 10.498 169.25 9.862C169.634 9.214 170.156 8.698 170.816 8.314C171.488 7.93 172.226 7.738 173.03 7.738C173.702 7.738 174.278 7.846 174.758 8.062C175.238 8.278 175.706 8.614 176.162 9.07V10.042C175.766 9.454 175.322 9.01 174.83 8.71C174.35 8.398 173.75 8.242 173.03 8.242C172.37 8.242 171.746 8.416 171.158 8.764C170.582 9.1 170.12 9.556 169.772 10.132C169.424 10.708 169.25 11.326 169.25 11.986C169.25 12.706 169.418 13.354 169.754 13.93C170.09 14.494 170.54 14.938 171.104 15.262C171.68 15.574 172.298 15.73 172.958 15.73C174.302 15.73 175.37 15.124 176.162 13.912V14.884C175.73 15.34 175.25 15.682 174.722 15.91C174.206 16.126 173.618 16.234 172.958 16.234ZM181.71 7.9H182.286V9.88C182.61 9.232 183.114 8.71 183.798 8.314C184.482 7.906 185.202 7.702 185.958 7.702C186.738 7.702 187.452 7.894 188.1 8.278C188.76 8.662 189.282 9.178 189.666 9.826C190.05 10.474 190.242 11.182 190.242 11.95C190.242 12.718 190.05 13.426 189.666 14.074C189.282 14.722 188.76 15.238 188.1 15.622C187.452 16.006 186.738 16.198 185.958 16.198C185.226 16.198 184.518 16 183.834 15.604C183.162 15.208 182.646 14.686 182.286 14.038V19.6H181.71V7.9ZM185.994 15.694C186.654 15.694 187.266 15.526 187.83 15.19C188.394 14.842 188.838 14.386 189.162 13.822C189.498 13.246 189.666 12.622 189.666 11.95C189.666 11.29 189.498 10.672 189.162 10.096C188.826 9.52 188.376 9.064 187.812 8.728C187.248 8.38 186.636 8.206 185.976 8.206C185.316 8.206 184.698 8.38 184.122 8.728C183.558 9.076 183.102 9.538 182.754 10.114C182.418 10.69 182.25 11.308 182.25 11.968C182.25 12.628 182.418 13.246 182.754 13.822C183.102 14.386 183.564 14.842 184.14 15.19C184.716 15.526 185.334 15.694 185.994 15.694ZM195.898 16.288C195.082 16.288 194.344 16.09 193.684 15.694C193.024 15.286 192.508 14.752 192.136 14.092C191.764 13.42 191.578 12.694 191.578 11.914C191.578 11.146 191.764 10.432 192.136 9.772C192.52 9.112 193.036 8.59 193.684 8.206C194.344 7.81 195.076 7.612 195.88 7.612C196.672 7.612 197.392 7.81 198.04 8.206C198.7 8.59 199.216 9.112 199.588 9.772C199.96 10.432 200.146 11.146 200.146 11.914C200.146 12.718 199.966 13.456 199.606 14.128C199.246 14.788 198.742 15.316 198.094 15.712C197.458 16.096 196.726 16.288 195.898 16.288ZM195.898 15.784C196.582 15.784 197.206 15.61 197.77 15.262C198.334 14.914 198.772 14.452 199.084 13.876C199.408 13.288 199.57 12.646 199.57 11.95C199.57 11.266 199.408 10.63 199.084 10.042C198.76 9.454 198.316 8.986 197.752 8.638C197.188 8.29 196.564 8.116 195.88 8.116C195.196 8.116 194.566 8.296 193.99 8.656C193.426 9.004 192.976 9.472 192.64 10.06C192.316 10.648 192.154 11.284 192.154 11.968C192.154 12.652 192.316 13.288 192.64 13.876C192.976 14.452 193.426 14.914 193.99 15.262C194.566 15.61 195.202 15.784 195.898 15.784ZM205.088 11.14L201.92 7.9H202.568L205.16 10.51V7.9H205.736V10.51L208.328 7.9H208.976L205.808 11.14L210.542 16H209.768L205.736 11.842V16H205.16V11.842L201.128 16H200.354L205.088 11.14ZM220.009 15.478V17.746H219.505V16H211.729V17.746H211.225V15.496H211.891L215.653 7.666L219.415 15.478H220.009ZM218.839 15.478L215.653 8.854L212.467 15.478H218.839ZM225.185 15.712C225.809 15.712 226.403 15.55 226.967 15.226C227.531 14.902 227.999 14.458 228.371 13.894V14.812C227.927 15.304 227.441 15.664 226.913 15.892C226.385 16.108 225.785 16.216 225.113 16.216C224.369 16.216 223.667 16.018 223.007 15.622C222.359 15.226 221.837 14.698 221.441 14.038C221.057 13.378 220.865 12.676 220.865 11.932C220.865 11.128 221.057 10.408 221.441 9.772C221.825 9.124 222.347 8.62 223.007 8.26C223.679 7.9 224.423 7.72 225.239 7.72C226.487 7.72 227.549 8.212 228.425 9.196L222.773 14.776C223.169 15.1 223.553 15.34 223.925 15.496C224.297 15.64 224.717 15.712 225.185 15.712ZM221.441 11.878C221.441 12.874 221.771 13.726 222.431 14.434L227.705 9.196C227.309 8.848 226.925 8.602 226.553 8.458C226.181 8.302 225.737 8.224 225.221 8.224C224.489 8.224 223.835 8.386 223.259 8.71C222.695 9.022 222.251 9.454 221.927 10.006C221.603 10.558 221.441 11.182 221.441 11.878ZM230.442 7.9H231.018V12.454H236.508V7.9H237.084V16H236.508V12.958H231.018V16H230.442V7.9ZM239.776 7.9H240.334V15.19L246.148 7.9H246.67V16H246.112V8.728L240.28 16H239.776V7.9ZM250.831 13.156C250.231 13.012 249.745 12.7 249.373 12.22C249.013 11.728 248.833 11.146 248.833 10.474C248.833 10.03 248.953 9.61 249.193 9.214C249.433 8.818 249.757 8.5 250.165 8.26C250.573 8.02 251.017 7.9 251.497 7.9H252.577V16H252.001V13.21H251.407L249.355 16H248.743L250.831 13.156ZM252.001 12.724V8.386H251.461C251.101 8.386 250.759 8.488 250.435 8.692C250.111 8.896 249.847 9.166 249.643 9.502C249.451 9.826 249.355 10.174 249.355 10.546C249.355 10.918 249.451 11.272 249.643 11.608C249.847 11.944 250.111 12.214 250.435 12.418C250.759 12.622 251.101 12.724 251.461 12.724H252.001Z" fill="#462208"/>
</svg>
