<svg width="260" height="67" viewBox="0 0 260 67" fill="none" xmlns="http://www.w3.org/2000/svg">
<path d="M25.856 41.968C25.856 38.9813 25.1733 36.7627 23.808 35.312C22.4853 33.8187 20.544 33.072 17.984 33.072C17.3867 33.072 16.8747 33.0933 16.448 33.136C16.0213 33.136 15.616 33.136 15.232 33.136C15.232 34.032 15.2107 34.9707 15.168 35.952C15.168 36.8907 15.168 38.0213 15.168 39.344C15.168 40.368 15.168 41.4133 15.168 42.48C15.2107 43.5467 15.232 44.592 15.232 45.616C15.232 46.64 15.232 47.5787 15.232 48.432C15.2747 49.2853 15.296 49.9893 15.296 50.544C15.8933 50.5867 16.448 50.6293 16.96 50.672C17.472 50.672 18.0907 50.672 18.816 50.672C19.7547 50.672 20.6507 50.48 21.504 50.096C22.3573 49.712 23.104 49.1573 23.744 48.432C24.384 47.664 24.896 46.7467 25.28 45.68C25.664 44.6133 25.856 43.376 25.856 41.968ZM25.408 21.296C25.408 20.272 25.28 19.312 25.024 18.416C24.8107 17.4773 24.4267 16.688 23.872 16.048C23.3173 15.3653 22.6133 14.832 21.76 14.448C20.9067 14.0213 19.84 13.808 18.56 13.808C17.6213 13.808 16.96 13.8293 16.576 13.872C16.2347 13.872 15.8507 13.9147 15.424 14C15.3387 15.5787 15.2747 17.1787 15.232 18.8C15.1893 20.4213 15.168 21.7867 15.168 22.896C15.168 24.048 15.168 25.1573 15.168 26.224C15.2107 27.248 15.232 28.3147 15.232 29.424H18.112C19.008 29.424 19.8827 29.2533 20.736 28.912C21.632 28.5707 22.4213 28.08 23.104 27.44C23.7867 26.7573 24.3413 25.904 24.768 24.88C25.1947 23.856 25.408 22.6613 25.408 21.296ZM5.696 27.888C5.696 24.3467 5.65333 21.2107 5.568 18.48C5.48267 15.7067 5.35467 12.9333 5.184 10.16C5.90933 10.2453 6.69867 10.3307 7.552 10.416C8.40533 10.4587 9.36533 10.48 10.432 10.48C12.2667 10.48 14.1867 10.4373 16.192 10.352C18.1973 10.224 20.1173 10.16 21.952 10.16C23.872 10.16 25.6213 10.352 27.2 10.736C28.7787 11.12 30.144 11.7173 31.296 12.528C32.448 13.296 33.3227 14.32 33.92 15.6C34.56 16.8373 34.88 18.3307 34.88 20.08C34.88 21.8293 34.5173 23.344 33.792 24.624C33.0667 25.8613 32.1707 26.9067 31.104 27.76C30.08 28.5707 28.9493 29.2107 27.712 29.68C26.5173 30.1493 25.4293 30.4693 24.448 30.64V30.768C25.4293 30.8107 26.5813 31.0453 27.904 31.472C29.2267 31.856 30.4853 32.4747 31.68 33.328C32.8747 34.1813 33.8773 35.2907 34.688 36.656C35.5413 37.9787 35.968 39.6 35.968 41.52C35.968 43.824 35.5413 45.7867 34.688 47.408C33.8773 49.0293 32.768 50.352 31.36 51.376C29.9947 52.4 28.416 53.1253 26.624 53.552C24.832 53.936 22.976 54.128 21.056 54.128C19.3493 54.128 17.7493 54.1067 16.256 54.064C14.8053 54.0213 13.2693 54 11.648 54C10.496 54 9.30133 54 8.064 54C6.86933 54 5.90933 54.0427 5.184 54.128C5.35467 51.4827 5.48267 48.7947 5.568 46.064C5.65333 43.2907 5.696 40.1333 5.696 36.592V27.888ZM53.285 46.8C53.285 45.424 53.285 44.384 53.285 43.68C53.317 42.944 53.333 42.304 53.333 41.76C52.661 42.144 51.941 42.464 51.173 42.72C50.437 42.944 49.749 43.248 49.109 43.632C48.501 43.984 47.989 44.48 47.573 45.12C47.189 45.76 46.997 46.688 46.997 47.904C46.997 49.088 47.237 50 47.717 50.64C48.229 51.248 48.901 51.552 49.733 51.552C50.789 51.552 51.637 51.152 52.277 50.352C52.949 49.552 53.285 48.368 53.285 46.8ZM41.909 33.744C43.253 32.656 44.693 31.824 46.229 31.248C47.797 30.672 49.349 30.384 50.885 30.384C52.165 30.384 53.333 30.528 54.389 30.816C55.477 31.104 56.405 31.568 57.173 32.208C57.973 32.816 58.581 33.616 58.997 34.608C59.445 35.6 59.669 36.8 59.669 38.208C59.669 40.256 59.637 42.16 59.573 43.92C59.541 45.648 59.525 47.376 59.525 49.104C59.525 49.872 59.573 50.48 59.669 50.928C59.797 51.344 59.973 51.664 60.197 51.888C60.421 52.112 60.709 52.256 61.061 52.32C61.445 52.384 61.877 52.416 62.357 52.416V53.568C61.429 53.952 60.645 54.24 60.005 54.432C59.365 54.624 58.677 54.72 57.941 54.72C56.757 54.72 55.797 54.432 55.061 53.856C54.325 53.28 53.765 52.448 53.381 51.36C52.645 52.384 51.781 53.2 50.789 53.808C49.829 54.416 48.613 54.72 47.141 54.72C45.925 54.72 44.885 54.56 44.021 54.24C43.157 53.92 42.437 53.472 41.861 52.896C41.317 52.288 40.917 51.616 40.661 50.88C40.405 50.112 40.277 49.344 40.277 48.576C40.277 47.52 40.437 46.608 40.757 45.84C41.109 45.072 41.589 44.416 42.197 43.872C42.837 43.328 43.589 42.88 44.453 42.528C45.317 42.144 46.293 41.824 47.381 41.568C48.725 41.248 49.781 40.976 50.549 40.752C51.349 40.496 51.941 40.256 52.325 40.032C52.709 39.776 52.949 39.504 53.045 39.216C53.173 38.928 53.237 38.576 53.237 38.16C53.237 37.008 52.821 36.032 51.989 35.232C51.189 34.4 50.069 33.984 48.629 33.984C48.085 33.984 47.525 34.064 46.949 34.224C46.373 34.352 45.813 34.544 45.269 34.8C44.757 35.056 44.277 35.344 43.829 35.664C43.413 35.952 43.093 36.272 42.869 36.624H42.533L41.909 33.744ZM72.485 42.768C72.485 44.176 72.533 45.488 72.629 46.704C72.757 47.92 72.965 48.976 73.253 49.872C73.573 50.736 73.989 51.424 74.501 51.936C75.045 52.448 75.749 52.704 76.613 52.704C77.989 52.704 79.077 51.856 79.877 50.16C80.709 48.432 81.125 45.616 81.125 41.712C81.125 36.144 79.749 33.36 76.997 33.36C76.325 33.36 75.701 33.52 75.125 33.84C74.581 34.16 74.101 34.704 73.685 35.472C73.301 36.208 72.997 37.184 72.773 38.4C72.581 39.584 72.485 41.04 72.485 42.768ZM66.053 34.512C66.053 31.376 66.021 28.496 65.957 25.872C65.893 23.248 65.797 20.592 65.669 17.904C66.085 17.968 66.613 18.032 67.253 18.096C67.893 18.128 68.565 18.144 69.269 18.144C69.973 18.144 70.645 18.128 71.285 18.096C71.925 18.032 72.453 17.968 72.869 17.904C72.741 20.592 72.645 23.248 72.581 25.872C72.517 28.496 72.485 31.376 72.485 34.512H72.581C73.125 33.168 73.957 32.144 75.077 31.44C76.229 30.736 77.525 30.384 78.965 30.384C80.341 30.384 81.589 30.688 82.709 31.296C83.861 31.904 84.837 32.72 85.637 33.744C86.469 34.768 87.109 35.984 87.557 37.392C88.005 38.768 88.229 40.256 88.229 41.856C88.229 44.256 87.893 46.288 87.221 47.952C86.581 49.584 85.733 50.912 84.677 51.936C83.653 52.96 82.501 53.68 81.221 54.096C79.941 54.512 78.677 54.72 77.429 54.72C75.893 54.72 74.597 54.432 73.541 53.856C72.485 53.248 71.621 52.464 70.949 51.504C70.277 51.888 69.589 52.336 68.885 52.848C68.213 53.36 67.525 53.84 66.821 54.288H65.669C65.797 51.6 65.893 48.944 65.957 46.32C66.021 43.664 66.053 40.768 66.053 37.632V34.512ZM102.729 46.08C103.305 44.608 103.833 43.248 104.313 42C104.793 40.72 105.241 39.488 105.657 38.304C106.105 37.12 106.521 35.936 106.905 34.752C107.321 33.568 107.737 32.32 108.153 31.008C108.505 31.072 108.825 31.136 109.113 31.2C109.433 31.232 109.753 31.248 110.073 31.248C110.393 31.248 110.713 31.232 111.033 31.2C111.353 31.136 111.705 31.072 112.089 31.008C111.929 31.424 111.545 32.32 110.937 33.696C110.361 35.04 109.641 36.72 108.777 38.736C107.945 40.72 107.017 42.928 105.993 45.36C104.969 47.792 103.929 50.256 102.873 52.752C101.849 55.216 100.841 57.664 99.8491 60.096C98.8891 62.528 98.0411 64.736 97.3051 66.72C96.9531 66.656 96.6171 66.592 96.2971 66.528C95.9771 66.496 95.6411 66.48 95.2891 66.48C94.9371 66.48 94.6011 66.496 94.2811 66.528C93.9611 66.592 93.6251 66.656 93.2731 66.72C94.3291 64.608 95.3691 62.512 96.3931 60.432C97.4171 58.384 98.4091 56.304 99.3691 54.192C98.6011 52.368 97.7371 50.304 96.7771 48C95.8491 45.696 94.9211 43.44 93.9931 41.232C93.0971 39.024 92.2651 37.008 91.4971 35.184C90.7611 33.36 90.2011 31.968 89.8171 31.008C90.4251 31.072 91.0171 31.136 91.5931 31.2C92.2011 31.232 92.8091 31.248 93.4171 31.248C94.0251 31.248 94.6171 31.232 95.1931 31.2C95.7691 31.136 96.3611 31.072 96.9691 31.008C97.8971 33.536 98.8251 36.048 99.7531 38.544C100.713 41.04 101.705 43.552 102.729 46.08ZM135.529 34.608C136.425 33.264 137.465 32.224 138.648 31.488C139.865 30.752 141.241 30.384 142.777 30.384C144.217 30.384 145.449 30.784 146.473 31.584C147.529 32.352 148.345 33.472 148.921 34.944C149.881 33.472 151.001 32.352 152.281 31.584C153.561 30.784 154.921 30.384 156.361 30.384C158.761 30.384 160.601 31.088 161.881 32.496C163.193 33.872 163.849 36.112 163.849 39.216C163.849 40.848 163.817 42.288 163.753 43.536C163.689 44.784 163.657 46.032 163.657 47.28C163.657 48.304 163.673 49.424 163.705 50.64C163.769 51.824 163.833 52.976 163.897 54.096C163.481 54.032 162.953 54 162.313 54C161.673 54 161.001 54 160.297 54C159.593 54 158.921 54 158.281 54C157.641 54 157.113 54.032 156.697 54.096C156.921 52.432 157.065 50.48 157.129 48.24C157.193 45.968 157.225 43.376 157.225 40.464C157.225 38.448 156.889 36.976 156.217 36.048C155.545 35.088 154.601 34.608 153.385 34.608C152.617 34.608 151.977 34.784 151.465 35.136C150.985 35.488 150.601 35.952 150.312 36.528C150.025 37.072 149.833 37.664 149.737 38.304C149.641 38.944 149.593 39.552 149.593 40.128V43.584C149.593 45.536 149.609 47.376 149.641 49.104C149.705 50.832 149.817 52.496 149.977 54.096C149.561 54.032 149.033 54 148.393 54C147.785 54 147.113 54 146.377 54C145.641 54 144.969 54 144.361 54C143.753 54 143.225 54.032 142.777 54.096C142.937 52.496 143.033 50.832 143.065 49.104C143.129 47.376 143.161 45.536 143.161 43.584V40.656C143.161 38.736 142.921 37.248 142.441 36.192C141.961 35.136 141.049 34.608 139.705 34.608C138.265 34.608 137.209 35.232 136.537 36.48C135.865 37.728 135.529 39.456 135.529 41.664V43.584C135.529 45.536 135.545 47.376 135.577 49.104C135.641 50.832 135.753 52.496 135.913 54.096C135.497 54.032 134.969 54 134.329 54C133.721 54 133.049 54 132.312 54C131.577 54 130.905 54 130.297 54C129.689 54 129.161 54.032 128.713 54.096C128.873 52.496 128.969 50.832 129.001 49.104C129.065 47.376 129.097 45.536 129.097 43.584V41.664C129.097 39.712 129.065 37.888 129.001 36.192C128.969 34.464 128.873 32.736 128.713 31.008C129.289 31.072 129.849 31.136 130.393 31.2C130.969 31.232 131.545 31.248 132.121 31.248C132.697 31.248 133.257 31.232 133.801 31.2C134.377 31.136 134.985 31.072 135.625 31.008L135.433 34.608H135.529ZM184.297 41.424C184.297 38.608 183.945 36.432 183.241 34.896C182.537 33.328 181.369 32.544 179.737 32.544C178.265 32.544 177.097 33.408 176.233 35.136C175.401 36.864 174.985 39.568 174.985 43.248C174.985 44.592 175.065 45.84 175.225 46.992C175.385 48.144 175.641 49.152 175.993 50.016C176.377 50.848 176.857 51.504 177.433 51.984C178.041 52.464 178.793 52.704 179.689 52.704C182.761 52.704 184.297 48.944 184.297 41.424ZM167.881 43.2C167.881 41.056 168.201 39.184 168.841 37.584C169.513 35.984 170.393 34.656 171.481 33.6C172.569 32.512 173.817 31.712 175.225 31.2C176.665 30.656 178.137 30.384 179.641 30.384C183.385 30.384 186.281 31.44 188.329 33.552C190.377 35.664 191.401 38.528 191.401 42.144C191.401 44.096 191.113 45.856 190.537 47.424C189.961 48.992 189.145 50.336 188.089 51.456C187.065 52.544 185.833 53.36 184.393 53.904C182.953 54.448 181.369 54.72 179.641 54.72C178.201 54.72 176.777 54.528 175.369 54.144C173.993 53.76 172.745 53.12 171.625 52.224C170.505 51.296 169.593 50.096 168.889 48.624C168.217 47.152 167.881 45.344 167.881 43.2ZM205.942 47.808C206.966 44.992 207.942 42.192 208.87 39.408C209.83 36.624 210.774 33.824 211.702 31.008C212.054 31.072 212.39 31.136 212.71 31.2C213.03 31.232 213.35 31.248 213.67 31.248C213.99 31.248 214.31 31.232 214.63 31.2C214.95 31.136 215.302 31.072 215.686 31.008C215.174 32.256 214.55 33.712 213.814 35.376C213.078 37.008 212.294 38.816 211.462 40.8C210.662 42.752 209.83 44.864 208.966 47.136C208.134 49.376 207.35 51.696 206.614 54.096C206.166 54.032 205.734 54 205.318 54C204.902 54 204.47 54 204.022 54C203.574 54 203.142 54 202.726 54C202.31 54 201.878 54.032 201.43 54.096C200.79 52.272 200.07 50.256 199.27 48.048C198.502 45.84 197.734 43.68 196.966 41.568C196.198 39.424 195.478 37.424 194.806 35.568C194.134 33.712 193.574 32.192 193.126 31.008C193.798 31.072 194.438 31.136 195.046 31.2C195.686 31.232 196.31 31.248 196.918 31.248C197.526 31.248 198.118 31.232 198.694 31.2C199.302 31.136 199.91 31.072 200.518 31.008C201.382 33.824 202.246 36.624 203.11 39.408C204.006 42.192 204.918 44.992 205.846 47.808H205.942ZM224.532 42.624C224.532 43.904 224.66 45.104 224.916 46.224C225.172 47.344 225.556 48.32 226.068 49.152C226.612 49.952 227.284 50.592 228.084 51.072C228.916 51.52 229.876 51.744 230.964 51.744C233.172 51.744 235.14 51.024 236.868 49.584L237.444 50.016L236.388 52.704C235.588 53.312 234.628 53.792 233.508 54.144C232.388 54.528 230.916 54.72 229.092 54.72C227.524 54.72 226.036 54.496 224.628 54.048C223.22 53.632 221.972 52.928 220.884 51.936C219.828 50.944 218.98 49.696 218.34 48.192C217.732 46.656 217.428 44.832 217.428 42.72C217.428 40.64 217.7 38.832 218.244 37.296C218.82 35.76 219.604 34.48 220.596 33.456C221.588 32.432 222.756 31.664 224.1 31.152C225.476 30.64 226.964 30.384 228.564 30.384C231.732 30.384 234.148 31.312 235.812 33.168C237.508 35.024 238.356 37.648 238.356 41.04V42.048C238.356 42.336 238.34 42.528 238.308 42.624H224.532ZM231.924 40.464C231.86 38.064 231.556 36.144 231.012 34.704C230.5 33.264 229.62 32.544 228.372 32.544C227.668 32.544 227.076 32.784 226.596 33.264C226.116 33.744 225.732 34.368 225.444 35.136C225.156 35.872 224.932 36.72 224.772 37.68C224.644 38.608 224.564 39.536 224.532 40.464H231.924ZM243.156 48.192C243.348 48.704 243.588 49.2 243.876 49.68C244.196 50.128 244.58 50.544 245.028 50.928C245.476 51.28 246.004 51.568 246.612 51.792C247.252 52.016 247.988 52.128 248.82 52.128C249.94 52.128 250.804 51.84 251.412 51.264C252.02 50.688 252.324 50.064 252.324 49.392C252.324 48.656 252.052 48.064 251.508 47.616C250.964 47.168 250.276 46.768 249.444 46.416C248.644 46.032 247.764 45.648 246.804 45.264C245.844 44.88 244.948 44.4 244.116 43.824C243.316 43.216 242.644 42.464 242.1 41.568C241.556 40.672 241.284 39.52 241.284 38.112C241.284 36.768 241.524 35.616 242.004 34.656C242.516 33.664 243.172 32.864 243.972 32.256C244.772 31.616 245.668 31.152 246.66 30.864C247.684 30.544 248.692 30.384 249.684 30.384C251.028 30.384 252.212 30.576 253.236 30.96C254.292 31.344 255.364 31.904 256.452 32.64C256.164 33.28 255.924 33.968 255.732 34.704C255.54 35.44 255.396 36.16 255.3 36.864H253.956C253.86 36.48 253.7 36.064 253.476 35.616C253.252 35.136 252.948 34.688 252.564 34.272C252.18 33.856 251.716 33.52 251.172 33.264C250.628 32.976 249.972 32.832 249.204 32.832C248.244 32.832 247.428 33.088 246.756 33.6C246.116 34.112 245.796 34.784 245.796 35.616C245.796 36.384 246.068 37.008 246.612 37.488C247.188 37.936 247.892 38.336 248.724 38.688C249.556 39.04 250.468 39.392 251.46 39.744C252.452 40.096 253.364 40.56 254.196 41.136C255.028 41.68 255.716 42.4 256.26 43.296C256.836 44.192 257.124 45.344 257.124 46.752C257.124 48.16 256.868 49.376 256.356 50.4C255.844 51.392 255.156 52.224 254.292 52.896C253.428 53.536 252.436 54 251.316 54.288C250.228 54.576 249.076 54.72 247.86 54.72C246.42 54.72 245.124 54.512 243.972 54.096C242.82 53.68 241.908 53.248 241.236 52.8C241.62 51.264 241.86 49.728 241.956 48.192H243.156Z" fill="#FD8127"/>
<path d="M101.198 15.478V17.746H100.694V16H92.918V17.746H92.414V15.496H93.08L96.842 7.666L100.604 15.478H101.198ZM100.028 15.478L96.842 8.854L93.656 15.478H100.028ZM102.649 7.9H104.665C105.157 7.9 105.541 8.05 105.817 8.35C106.093 8.638 106.231 9.004 106.231 9.448C106.231 10.132 105.937 10.606 105.349 10.87C105.985 10.978 106.459 11.236 106.771 11.644C107.083 12.052 107.239 12.652 107.239 13.444C107.239 13.912 107.125 14.344 106.897 14.74C106.681 15.124 106.375 15.43 105.979 15.658C105.595 15.886 105.169 16 104.701 16H102.649V7.9ZM104.575 10.69C104.923 10.69 105.187 10.588 105.367 10.384C105.559 10.168 105.655 9.856 105.655 9.448C105.655 9.1 105.559 8.836 105.367 8.656C105.175 8.476 104.899 8.386 104.539 8.386H103.225V10.69H104.575ZM104.737 15.514C105.277 15.514 105.733 15.31 106.105 14.902C106.477 14.482 106.663 13.972 106.663 13.372C106.663 12.664 106.477 12.124 106.105 11.752C105.745 11.368 105.229 11.176 104.557 11.176H103.225V15.514H104.737ZM109.258 7.9H109.816V15.19L115.63 7.9H116.152V16H115.594V8.728L109.762 16H109.258V7.9ZM122.33 11.14L119.162 7.9H119.81L122.402 10.51V7.9H122.978V10.51L125.57 7.9H126.218L123.05 11.14L127.784 16H127.01L122.978 11.842V16H122.402V11.842L118.37 16H117.596L122.33 11.14ZM132.232 15.712C132.856 15.712 133.45 15.55 134.014 15.226C134.578 14.902 135.046 14.458 135.418 13.894V14.812C134.974 15.304 134.488 15.664 133.96 15.892C133.432 16.108 132.832 16.216 132.16 16.216C131.416 16.216 130.714 16.018 130.054 15.622C129.406 15.226 128.884 14.698 128.488 14.038C128.104 13.378 127.912 12.676 127.912 11.932C127.912 11.128 128.104 10.408 128.488 9.772C128.872 9.124 129.394 8.62 130.054 8.26C130.726 7.9 131.47 7.72 132.286 7.72C133.534 7.72 134.596 8.212 135.472 9.196L129.82 14.776C130.216 15.1 130.6 15.34 130.972 15.496C131.344 15.64 131.764 15.712 132.232 15.712ZM128.488 11.878C128.488 12.874 128.818 13.726 129.478 14.434L134.752 9.196C134.356 8.848 133.972 8.602 133.6 8.458C133.228 8.302 132.784 8.224 132.268 8.224C131.536 8.224 130.882 8.386 130.306 8.71C129.742 9.022 129.298 9.454 128.974 10.006C128.65 10.558 128.488 11.182 128.488 11.878ZM137.489 7.9H138.065V12.454H143.555V7.9H144.131V16H143.555V12.958H138.065V16H137.489V7.9ZM146.823 7.9H147.381V15.19L153.195 7.9H153.717V16H153.159V8.728L147.327 16H146.823V7.9ZM160.146 15.712C160.77 15.712 161.364 15.55 161.928 15.226C162.492 14.902 162.96 14.458 163.332 13.894V14.812C162.888 15.304 162.402 15.664 161.874 15.892C161.346 16.108 160.746 16.216 160.074 16.216C159.33 16.216 158.628 16.018 157.968 15.622C157.32 15.226 156.798 14.698 156.402 14.038C156.018 13.378 155.826 12.676 155.826 11.932C155.826 11.128 156.018 10.408 156.402 9.772C156.786 9.124 157.308 8.62 157.968 8.26C158.64 7.9 159.384 7.72 160.2 7.72C161.448 7.72 162.51 8.212 163.386 9.196L157.734 14.776C158.13 15.1 158.514 15.34 158.886 15.496C159.258 15.64 159.678 15.712 160.146 15.712ZM156.402 11.878C156.402 12.874 156.732 13.726 157.392 14.434L162.666 9.196C162.27 8.848 161.886 8.602 161.514 8.458C161.142 8.302 160.698 8.224 160.182 8.224C159.45 8.224 158.796 8.386 158.22 8.71C157.656 9.022 157.212 9.454 156.888 10.006C156.564 10.558 156.402 11.182 156.402 11.878ZM172.958 16.234C172.178 16.234 171.458 16.048 170.798 15.676C170.15 15.304 169.634 14.794 169.25 14.146C168.866 13.498 168.674 12.766 168.674 11.95C168.674 11.194 168.866 10.498 169.25 9.862C169.634 9.214 170.156 8.698 170.816 8.314C171.488 7.93 172.226 7.738 173.03 7.738C173.702 7.738 174.278 7.846 174.758 8.062C175.238 8.278 175.706 8.614 176.162 9.07V10.042C175.766 9.454 175.322 9.01 174.83 8.71C174.35 8.398 173.75 8.242 173.03 8.242C172.37 8.242 171.746 8.416 171.158 8.764C170.582 9.1 170.12 9.556 169.772 10.132C169.424 10.708 169.25 11.326 169.25 11.986C169.25 12.706 169.418 13.354 169.754 13.93C170.09 14.494 170.54 14.938 171.104 15.262C171.68 15.574 172.298 15.73 172.958 15.73C174.302 15.73 175.37 15.124 176.162 13.912V14.884C175.73 15.34 175.25 15.682 174.722 15.91C174.206 16.126 173.618 16.234 172.958 16.234ZM181.71 7.9H182.286V9.88C182.61 9.232 183.114 8.71 183.798 8.314C184.482 7.906 185.202 7.702 185.958 7.702C186.738 7.702 187.452 7.894 188.1 8.278C188.76 8.662 189.282 9.178 189.666 9.826C190.05 10.474 190.242 11.182 190.242 11.95C190.242 12.718 190.05 13.426 189.666 14.074C189.282 14.722 188.76 15.238 188.1 15.622C187.452 16.006 186.738 16.198 185.958 16.198C185.226 16.198 184.518 16 183.834 15.604C183.162 15.208 182.646 14.686 182.286 14.038V19.6H181.71V7.9ZM185.994 15.694C186.654 15.694 187.266 15.526 187.83 15.19C188.394 14.842 188.838 14.386 189.162 13.822C189.498 13.246 189.666 12.622 189.666 11.95C189.666 11.29 189.498 10.672 189.162 10.096C188.826 9.52 188.376 9.064 187.812 8.728C187.248 8.38 186.636 8.206 185.976 8.206C185.316 8.206 184.698 8.38 184.122 8.728C183.558 9.076 183.102 9.538 182.754 10.114C182.418 10.69 182.25 11.308 182.25 11.968C182.25 12.628 182.418 13.246 182.754 13.822C183.102 14.386 183.564 14.842 184.14 15.19C184.716 15.526 185.334 15.694 185.994 15.694ZM195.898 16.288C195.082 16.288 194.344 16.09 193.684 15.694C193.024 15.286 192.508 14.752 192.136 14.092C191.764 13.42 191.578 12.694 191.578 11.914C191.578 11.146 191.764 10.432 192.136 9.772C192.52 9.112 193.036 8.59 193.684 8.206C194.344 7.81 195.076 7.612 195.88 7.612C196.672 7.612 197.392 7.81 198.04 8.206C198.7 8.59 199.216 9.112 199.588 9.772C199.96 10.432 200.146 11.146 200.146 11.914C200.146 12.718 199.966 13.456 199.606 14.128C199.246 14.788 198.742 15.316 198.094 15.712C197.458 16.096 196.726 16.288 195.898 16.288ZM195.898 15.784C196.582 15.784 197.206 15.61 197.77 15.262C198.334 14.914 198.772 14.452 199.084 13.876C199.408 13.288 199.57 12.646 199.57 11.95C199.57 11.266 199.408 10.63 199.084 10.042C198.76 9.454 198.316 8.986 197.752 8.638C197.188 8.29 196.564 8.116 195.88 8.116C195.196 8.116 194.566 8.296 193.99 8.656C193.426 9.004 192.976 9.472 192.64 10.06C192.316 10.648 192.154 11.284 192.154 11.968C192.154 12.652 192.316 13.288 192.64 13.876C192.976 14.452 193.426 14.914 193.99 15.262C194.566 15.61 195.202 15.784 195.898 15.784ZM205.088 11.14L201.92 7.9H202.568L205.16 10.51V7.9H205.736V10.51L208.328 7.9H208.976L205.808 11.14L210.542 16H209.768L205.736 11.842V16H205.16V11.842L201.128 16H200.354L205.088 11.14ZM220.009 15.478V17.746H219.505V16H211.729V17.746H211.225V15.496H211.891L215.653 7.666L219.415 15.478H220.009ZM218.839 15.478L215.653 8.854L212.467 15.478H218.839ZM225.185 15.712C225.809 15.712 226.403 15.55 226.967 15.226C227.531 14.902 227.999 14.458 228.371 13.894V14.812C227.927 15.304 227.441 15.664 226.913 15.892C226.385 16.108 225.785 16.216 225.113 16.216C224.369 16.216 223.667 16.018 223.007 15.622C222.359 15.226 221.837 14.698 221.441 14.038C221.057 13.378 220.865 12.676 220.865 11.932C220.865 11.128 221.057 10.408 221.441 9.772C221.825 9.124 222.347 8.62 223.007 8.26C223.679 7.9 224.423 7.72 225.239 7.72C226.487 7.72 227.549 8.212 228.425 9.196L222.773 14.776C223.169 15.1 223.553 15.34 223.925 15.496C224.297 15.64 224.717 15.712 225.185 15.712ZM221.441 11.878C221.441 12.874 221.771 13.726 222.431 14.434L227.705 9.196C227.309 8.848 226.925 8.602 226.553 8.458C226.181 8.302 225.737 8.224 225.221 8.224C224.489 8.224 223.835 8.386 223.259 8.71C222.695 9.022 222.251 9.454 221.927 10.006C221.603 10.558 221.441 11.182 221.441 11.878ZM230.442 7.9H231.018V12.454H236.508V7.9H237.084V16H236.508V12.958H231.018V16H230.442V7.9ZM239.776 7.9H240.334V15.19L246.148 7.9H246.67V16H246.112V8.728L240.28 16H239.776V7.9ZM250.831 13.156C250.231 13.012 249.745 12.7 249.373 12.22C249.013 11.728 248.833 11.146 248.833 10.474C248.833 10.03 248.953 9.61 249.193 9.214C249.433 8.818 249.757 8.5 250.165 8.26C250.573 8.02 251.017 7.9 251.497 7.9H252.577V16H252.001V13.21H251.407L249.355 16H248.743L250.831 13.156ZM252.001 12.724V8.386H251.461C251.101 8.386 250.759 8.488 250.435 8.692C250.111 8.896 249.847 9.166 249.643 9.502C249.451 9.826 249.355 10.174 249.355 10.546C249.355 10.918 249.451 11.272 249.643 11.608C249.847 11.944 250.111 12.214 250.435 12.418C250.759 12.622 251.101 12.724 251.461 12.724H252.001Z" fill="#462208"/>
</svg>
