<svg width="55" height="56" viewBox="0 0 55 56" fill="none" xmlns="http://www.w3.org/2000/svg">
<path d="M41.25 56C41.4931 56 41.7263 55.9017 41.8982 55.7266C42.0701 55.5516 42.1667 55.3142 42.1667 55.0667V47.9825L48.3468 43.0507C49.1205 42.4235 50.1563 41.1934 50.5615 40.2152L54.9248 29.8868C54.9744 29.7701 55 29.6443 55 29.5172V20.5216C55 19.3605 53.7075 18.5037 52.459 18.3487C50.9117 18.1452 48.9665 19.0021 48.2332 21.9832C47.8555 23.5307 47.7712 24.8392 47.696 25.9928C47.6781 26.2439 47.7572 26.4921 47.9164 26.6846C48.0757 26.8771 48.3025 26.9986 48.5485 27.0233C49.0545 27.0587 49.489 26.7059 49.5202 26.1926C49.5953 25.039 49.6742 23.82 50.0133 22.4331C50.2443 21.496 50.7393 20.3442 51.7972 20.2005C52.5048 20.0978 53.097 20.4842 53.1942 20.6597L53.1667 29.3249L48.8748 39.4853C48.6072 40.1368 47.7748 41.128 47.2102 41.5872L40.6835 46.7953C40.5741 46.8824 40.4857 46.9937 40.425 47.1208C40.3643 47.248 40.333 47.3876 40.3333 47.5289V55.0667C40.3333 55.3142 40.4299 55.5516 40.6018 55.7266C40.7737 55.9017 41.0069 56 41.25 56ZM13.75 56C13.5069 56 13.2737 55.9017 13.1018 55.7266C12.9299 55.5516 12.8333 55.3142 12.8333 55.0667V47.9825L6.65317 43.0507C5.8795 42.4235 4.84367 41.1934 4.4385 40.2152L0.0751667 29.8868C0.0255518 29.7701 -3.09981e-05 29.6443 2.81873e-08 29.5172V20.5216C2.81873e-08 19.3605 1.2925 18.5037 2.541 18.3487C4.08833 18.1452 6.0335 19.0021 6.76683 21.9832C7.1445 23.5307 7.22883 24.8392 7.304 25.9928C7.32192 26.2439 7.24282 26.4921 7.08357 26.6846C6.92431 26.8771 6.6975 26.9986 6.4515 27.0233C5.9455 27.0587 5.511 26.7059 5.47983 26.1926C5.40467 25.039 5.32583 23.82 4.98667 22.4331C4.75567 21.496 4.26067 20.3442 3.20283 20.2005C2.49517 20.0978 1.903 20.4842 1.80583 20.6597L1.83333 29.3249L6.12517 39.4853C6.39283 40.1368 7.22517 41.128 7.78983 41.5872L14.3165 46.7953C14.4259 46.8824 14.5143 46.9937 14.575 47.1208C14.6357 47.248 14.667 47.3876 14.6667 47.5289V55.0667C14.6667 55.3142 14.5701 55.5516 14.3982 55.7266C14.2263 55.9017 13.9931 56 13.75 56ZM24.75 56C24.5069 56 24.2737 55.9017 24.1018 55.7266C23.9299 55.5516 23.8333 55.3142 23.8333 55.0667V44.8689C23.8333 40.9358 21.1658 37.5066 17.3452 36.5285C17.2284 36.4986 17.1186 36.4456 17.0219 36.3724C16.9253 36.2993 16.8437 36.2075 16.7819 36.1023C16.7201 35.9971 16.6793 35.8805 16.6618 35.7592C16.6442 35.6379 16.6503 35.5143 16.6797 35.3954C16.709 35.2765 16.7611 35.1647 16.8329 35.0663C16.9048 34.9679 16.9949 34.8849 17.0983 34.8219C17.2016 34.759 17.3161 34.7174 17.4352 34.6996C17.5543 34.6817 17.6757 34.6879 17.7925 34.7178C22.4272 35.905 25.6667 40.079 25.6667 44.8689V55.0667C25.6667 55.3142 25.5701 55.5516 25.3982 55.7266C25.2263 55.9017 24.9931 56 24.75 56Z" fill="#DDDDDD"/>
<path d="M14.2304 39.9782C13.9872 39.9782 13.7539 39.8803 13.5814 39.7057L5.53859 31.5295C5.45323 31.4428 5.3855 31.3398 5.33929 31.2264C5.29307 31.1131 5.26929 30.9915 5.26929 30.8687C5.26929 30.746 5.29307 30.6244 5.33929 30.511C5.3855 30.3976 5.45323 30.2946 5.53859 30.2079C8.05943 27.6412 11.1669 27.8577 14.0618 30.8053L18.1959 35.0053C18.3681 35.1803 18.4648 35.4178 18.465 35.6655C18.4652 35.9132 18.3687 36.1508 18.1968 36.326C18.025 36.5013 17.7917 36.5998 17.5485 36.6C17.3052 36.6002 17.0719 36.502 16.8998 36.3269L12.7656 32.1269C10.8864 30.2135 9.12826 29.8084 7.53876 30.9247L14.8758 38.384C15.0023 38.515 15.0882 38.681 15.1229 38.8614C15.1575 39.0417 15.1393 39.2284 15.0705 39.3983C15.0018 39.5682 14.8855 39.7137 14.7361 39.8168C14.5867 39.9199 14.4109 39.9761 14.2304 39.9782ZM30.2501 56.0001C30.007 56.0001 29.7738 55.9017 29.6019 55.7267C29.43 55.5517 29.3334 55.3143 29.3334 55.0667V44.869C29.3334 40.079 32.5729 35.9051 37.2076 34.7179C37.3244 34.6874 37.4459 34.6808 37.5652 34.6984C37.6845 34.7161 37.7992 34.7576 37.9027 34.8206C38.0061 34.8836 38.0963 34.9668 38.168 35.0655C38.2397 35.1642 38.2915 35.2763 38.3204 35.3955C38.3788 35.6355 38.3416 35.8893 38.2169 36.1016C38.0923 36.3139 37.8903 36.4673 37.6549 36.5286C33.8343 37.5067 31.1668 40.9358 31.1668 44.869V55.0667C31.1668 55.3143 31.0702 55.5517 30.8983 55.7267C30.7264 55.9017 30.4932 56.0001 30.2501 56.0001Z" fill="#DDDDDD"/>
<path d="M40.7695 39.9782C40.5888 39.9768 40.4124 39.9212 40.2625 39.8183C40.1126 39.7155 39.9957 39.57 39.9265 39.4C39.8572 39.23 39.8387 39.0429 39.8732 38.8623C39.9078 38.6816 39.9938 38.5153 40.1205 38.384L47.4575 30.9247C45.8698 29.8103 44.1098 30.2154 42.2307 32.1269L38.0965 36.3269C37.9244 36.502 37.691 36.6002 37.4478 36.6C37.2045 36.5998 36.9713 36.5013 36.7994 36.326C36.6275 36.1508 36.5311 35.9132 36.5313 35.6655C36.5314 35.4178 36.6282 35.1803 36.8003 35.0053L40.9345 30.8053C43.8293 27.8577 46.9368 27.6412 49.4577 30.2079C49.543 30.2946 49.6108 30.3976 49.657 30.511C49.7032 30.6244 49.727 30.746 49.727 30.8687C49.727 30.9915 49.7032 31.1131 49.657 31.2264C49.6108 31.3398 49.543 31.4428 49.4577 31.5295L41.4148 39.7057C41.3304 39.7923 41.2298 39.8611 41.119 39.9078C41.0082 39.9546 40.8894 39.9785 40.7695 39.9782Z" fill="#DDDDDD"/>
<path d="M40.7697 39.9784C40.589 39.9769 40.4126 39.9213 40.2627 39.8185C40.1128 39.7157 39.9959 39.5702 39.9267 39.4001C39.8575 39.2301 39.839 39.0431 39.8735 38.8624C39.908 38.6817 39.994 38.5154 40.1207 38.3842L47.4577 30.9249C45.8701 29.8105 44.1101 30.2155 42.2309 32.127L38.0967 36.3271C37.9246 36.5021 37.6913 36.6003 37.448 36.6002C37.2048 36.6 36.9715 36.5014 36.7997 36.3262C36.6278 36.1509 36.5313 35.9133 36.5315 35.6656C36.5316 35.4179 36.6284 35.1805 36.8006 35.0055L40.9347 30.8054C43.8296 27.8579 46.9371 27.6414 49.4579 30.2081C49.5433 30.2948 49.611 30.3978 49.6572 30.5112C49.7034 30.6245 49.7272 30.7461 49.7272 30.8689C49.7272 30.9916 49.7034 31.1132 49.6572 31.2266C49.611 31.34 49.5433 31.443 49.4579 31.5297L41.4151 39.7058C41.3306 39.7925 41.23 39.8612 41.1192 39.908C41.0085 39.9548 40.8897 39.9787 40.7697 39.9784ZM31.5316 21.3711C31.0347 21.3711 30.5379 21.33 30.0411 21.246C27.6687 20.8447 25.5897 19.525 24.1872 17.5276C22.7847 15.5302 22.2311 13.0998 22.6234 10.6843C22.7721 9.88748 23.2211 9.18158 23.8745 8.71759C24.5278 8.25361 25.3335 8.0684 26.1193 8.20157C26.905 8.33475 27.6084 8.77574 28.0788 9.43021C28.5493 10.0847 28.7496 10.9006 28.6367 11.7035C28.5267 12.3755 28.6514 13.0718 28.9814 13.6598C29.0414 13.7662 29.0801 13.8835 29.0955 14.0052C29.1109 14.1268 29.1026 14.2504 29.0712 14.3688C29.0397 14.4872 28.9856 14.5981 28.912 14.6952C28.8384 14.7923 28.7467 14.8737 28.6422 14.9347C28.5377 14.9958 28.4225 15.0353 28.303 15.0509C28.1835 15.0666 28.0622 15.0582 27.9459 15.0261C27.8296 14.9941 27.7207 14.939 27.6253 14.8641C27.53 14.7891 27.45 14.6958 27.3901 14.5894C26.8483 13.6233 26.649 12.4971 26.8254 11.3992C26.8779 11.0753 26.8023 10.7433 26.615 10.4761C26.4278 10.2088 26.1442 10.0279 25.8262 9.97306C25.5084 9.92011 25.1828 9.99738 24.9208 10.188C24.6587 10.3786 24.4813 10.6671 24.4274 10.9904C24.1139 12.9131 24.5557 14.8489 25.6741 16.4412C26.7924 18.0335 28.4497 19.0863 30.3381 19.4055C30.8569 19.4914 31.3831 19.525 31.8964 19.4951C32.0167 19.4887 32.137 19.5065 32.2505 19.5475C32.364 19.5885 32.4684 19.6518 32.5579 19.7339C32.6474 19.8159 32.7201 19.9152 32.7719 20.0258C32.8237 20.1365 32.8536 20.2565 32.8598 20.379C32.8661 20.5014 32.8486 20.6239 32.8084 20.7395C32.7681 20.855 32.7059 20.9614 32.6253 21.0525C32.5447 21.1436 32.4473 21.2176 32.3385 21.2704C32.2298 21.3231 32.112 21.3535 31.9917 21.3599C31.8385 21.3675 31.685 21.3712 31.5316 21.3711Z" fill="#DDDDDD"/>
<path d="M26.1912 33.9729C25.3515 33.9729 24.4587 33.8908 23.5053 33.7116C21.0267 33.2449 19.0045 31.7926 17.8092 29.6179C16.986 28.1227 16.2967 25.7837 16.7605 22.3565C16.4424 22.5049 16.11 22.6194 15.7687 22.6981C14.4982 23.0098 12.6758 22.4648 11.6162 21.4605C10.8132 20.697 10.463 19.7058 10.6335 18.6698C10.782 17.7756 11.2147 17.0644 11.8857 16.6108C12.6502 16.0956 13.5687 16.0116 14.2085 16.0508C15.4882 12.6086 18.1887 10.923 21.2613 11.7219C22.6162 12.0747 23.718 12.9278 24.4458 14.1878C25.7713 16.4783 25.654 19.5919 25.1022 21.7405C25.0777 21.8651 25.0284 21.9834 24.9575 22.0879C24.8865 22.1925 24.7954 22.2813 24.6895 22.3487C24.5837 22.4161 24.4655 22.4608 24.3421 22.4801C24.2187 22.4993 24.0927 22.4927 23.9719 22.4606C23.8511 22.4285 23.738 22.3716 23.6396 22.2935C23.5411 22.2153 23.4594 22.1175 23.3994 22.006C23.3394 21.8945 23.3024 21.7718 23.2907 21.6452C23.2789 21.5187 23.2927 21.391 23.3312 21.2701C23.7657 19.5639 23.9068 16.9356 22.8673 15.1361C22.6494 14.7397 22.3542 14.3928 21.9998 14.1167C21.6455 13.8407 21.2394 13.6412 20.8067 13.5307C18.4765 12.9203 16.5863 14.3502 15.7192 17.3369C15.6524 17.5657 15.5022 17.7599 15.2994 17.8796C15.0966 17.9994 14.8565 18.0356 14.6283 17.9809C14.3295 17.9119 13.4275 17.8111 12.8958 18.1732C12.7418 18.2796 12.5273 18.4775 12.443 18.9834C12.4173 19.1346 12.3403 19.5975 12.8665 20.0978C13.5815 20.7754 14.8135 21.0143 15.3397 20.8855C15.9887 20.7269 16.8522 20.5141 17.7817 18.1601C17.8862 17.854 17.9962 17.5423 18.1172 17.2249C18.1991 16.9917 18.3686 16.8013 18.5885 16.6954C18.8084 16.5895 19.0606 16.5768 19.2896 16.6603C19.5186 16.7437 19.7057 16.9163 19.8097 17.1402C19.9137 17.3641 19.9261 17.6208 19.8442 17.854C19.7323 18.1881 19.6223 18.498 19.5087 18.7874C18.1208 22.8848 18.086 26.3008 19.4097 28.7089C20.3337 30.3889 21.9067 31.5145 23.8408 31.8785C31.9808 33.4055 35.0535 26.9392 36.885 23.0714C37.5065 21.7573 37.8823 20.9658 38.414 20.5794C38.7128 20.386 39.0212 20.2085 39.338 20.0474C41.5197 18.8807 46.631 16.146 47.2085 11.0219C47.6943 6.74529 44.6602 2.68709 40.4508 1.97588C39.465 1.8068 38.456 1.83819 37.4821 2.06823C36.5082 2.29827 35.5887 2.72241 34.7767 3.31617C33.9617 3.90632 33.2697 4.65511 32.7407 5.51926C32.2117 6.3834 31.8563 7.34575 31.6948 8.35065C31.6472 8.75012 31.3465 9.20747 30.9597 9.28587C30.3676 9.39832 29.8248 9.69586 29.4066 10.1371C28.9884 10.5783 28.7156 11.1413 28.6263 11.7477C28.537 12.3541 28.6355 12.9737 28.9081 13.5205C29.1807 14.0672 29.614 14.5138 30.1475 14.7982C30.3617 14.9158 30.5212 15.1152 30.591 15.3526C30.6608 15.5899 30.6351 15.8458 30.5197 16.0638C30.4042 16.2819 30.2083 16.4444 29.9752 16.5154C29.7421 16.5865 29.4908 16.5604 29.2767 16.4428C28.4029 15.9668 27.6972 15.2243 27.2587 14.3195C26.8201 13.4147 26.6705 12.3928 26.831 11.3971C26.9749 10.5422 27.3411 9.74207 27.8914 9.07996C28.4417 8.41784 29.1562 7.91786 29.9605 7.63197C30.4416 5.27557 31.7803 3.19166 33.7078 1.79854C34.7151 1.06058 35.8561 0.53342 37.0649 0.247602C38.2736 -0.0382166 39.5261 -0.0770172 40.7497 0.133447C45.9068 1.0052 49.6212 5.98554 49.029 11.2347C48.3378 17.3407 42.418 20.5066 40.1887 21.6994C39.855 21.8786 39.6057 22.0055 39.4792 22.0951C39.3013 22.2631 38.876 23.161 38.5332 23.8816C36.9272 27.2752 33.7518 33.9729 26.1912 33.9729Z" fill="#DDDDDD"/>
</svg>
