<svg width="58" height="58" viewBox="0 0 58 58" fill="none" xmlns="http://www.w3.org/2000/svg">
<path d="M24.167 58.0002H2.90004C1.30115 58.0002 0 56.699 0 55.1001V33.8327C0 32.2338 1.30115 30.9326 2.90004 30.9326H24.167C25.7659 30.9326 27.0671 32.2338 27.0671 33.8327V55.1001C27.0671 56.699 25.7659 58.0002 24.167 58.0002ZM2.90004 32.866C2.3674 32.866 1.93336 33.3001 1.93336 33.8327V55.1001C1.93336 55.6327 2.3674 56.0668 2.90004 56.0668H24.167C24.6997 56.0668 25.1337 55.6327 25.1337 55.1001V33.8327C25.1337 33.3001 24.6997 32.866 24.167 32.866H2.90004Z" fill="#FD8127" fill-opacity="0.7"/>
<path d="M16.8821 51.233H10.1849C10.0152 51.2332 9.84842 51.1886 9.70143 51.1038C9.55445 51.0189 9.43246 50.8968 9.34776 50.7497L5.99918 44.9495C5.91462 44.8025 5.87012 44.6358 5.87012 44.4662C5.87012 44.2965 5.91462 44.1299 5.99918 43.9828L9.34776 38.1826C9.43261 38.0357 9.55463 37.9136 9.70158 37.8288C9.84853 37.7439 10.0152 37.6993 10.1849 37.6993H16.8821C17.2272 37.6993 17.5472 37.8829 17.7192 38.1826L21.0678 43.9828C21.2399 44.2825 21.2399 44.6498 21.0678 44.9495L17.7192 50.7497C17.6344 50.8966 17.5124 51.0187 17.3654 51.1035C17.2185 51.1884 17.0518 51.233 16.8821 51.233ZM10.7427 49.2996H16.3233L19.1141 44.4662L16.3233 39.6327H10.7427L7.95188 44.4662L10.7427 49.2996ZM51.409 57.9999C51.2428 57.9999 51.0736 57.9854 50.9044 57.9555L29.9603 54.2627C29.2032 54.128 28.5304 53.6987 28.0894 53.0688C27.6483 52.439 27.475 51.6599 27.6074 50.9024L31.3001 29.958C31.435 29.201 31.8644 28.5283 32.4942 28.0873C33.124 27.6463 33.9029 27.4729 34.6603 27.605L55.6044 31.2978C56.3614 31.4324 57.0342 31.8618 57.4751 32.4917C57.916 33.1216 58.0891 33.9007 57.9564 34.658L54.2636 55.6025C54.1444 56.2733 53.7931 56.8809 53.2713 57.3189C52.7495 57.757 52.0903 57.9987 51.409 57.9999ZM30.2967 52.3583L51.2408 56.0511C51.4932 56.0955 51.7529 56.0378 51.9628 55.8908C52.1727 55.7438 52.3157 55.5194 52.3602 55.2671L56.053 34.3226C56.0974 34.0702 56.0397 33.8105 55.8927 33.6006C55.7457 33.3907 55.5214 33.2477 55.269 33.2032L34.3249 29.5104C34.1998 29.4879 34.0715 29.4904 33.9473 29.5177C33.8232 29.545 33.7057 29.5967 33.6017 29.6697C33.4976 29.7426 33.409 29.8355 33.341 29.9429C33.273 30.0503 33.2269 30.1701 33.2055 30.2953L29.5127 51.2398C29.4908 51.3649 29.4936 51.493 29.5212 51.6169C29.5488 51.7409 29.6005 51.8582 29.6733 51.9621C29.7462 52.0661 29.8389 52.1546 29.946 52.2228C30.0531 52.2909 30.1726 52.3373 30.2977 52.3592L30.2967 52.3583Z" fill="#FD8127" fill-opacity="0.7"/>
<path d="M48.4286 50.6937C48.3725 50.6937 48.3165 50.6889 48.2604 50.6792L34.9328 48.3292C34.7655 48.3 34.609 48.2273 34.4788 48.1183C34.3487 48.0093 34.2495 47.868 34.1914 47.7085C34.1333 47.549 34.1182 47.377 34.1477 47.2099C34.1772 47.0427 34.2503 46.8863 34.3595 46.7563L43.0587 36.3885C43.1681 36.259 43.3095 36.1605 43.4689 36.1028C43.6283 36.0451 43.8 36.0302 43.967 36.0596C44.1339 36.0891 44.2902 36.1618 44.4202 36.2706C44.5502 36.3794 44.6494 36.5204 44.7078 36.6795L49.3363 49.3974C49.3897 49.5433 49.4071 49.6999 49.3869 49.854C49.3668 50.0081 49.3097 50.155 49.2206 50.2823C49.1315 50.4096 49.0129 50.5135 48.875 50.5851C48.7371 50.6567 48.584 50.694 48.4286 50.6937ZM36.9174 46.7157L46.9467 48.4848L43.4637 38.9145L36.9174 46.7157ZM17.2348 30.8116C16.5643 30.8104 15.9148 30.5772 15.3966 30.1517C14.8784 29.7262 14.5234 29.1345 14.3918 28.477L10.2379 7.61958C10.1625 7.24615 10.1619 6.86149 10.2361 6.48782C10.3102 6.11415 10.4577 5.75889 10.67 5.44257C10.8808 5.12497 11.1525 4.85238 11.4695 4.64064C11.7865 4.42889 12.1423 4.2822 12.5164 4.20907L33.3735 0.0551676C34.1277 -0.0939539 34.9102 0.0620568 35.5495 0.488995C36.1888 0.915934 36.6327 1.57896 36.784 2.33271L40.9378 23.1902C41.0886 23.95 40.9359 24.7224 40.5057 25.3672C40.0755 26.012 39.4201 26.4499 38.6603 26.6007L17.8032 30.7546C17.6163 30.7917 17.4263 30.8105 17.2357 30.8107L17.2348 30.8116ZM33.939 1.93153C33.8754 1.93135 33.8119 1.93783 33.7495 1.95086L12.8924 6.10476C12.7677 6.12913 12.6491 6.17794 12.5433 6.24838C12.4376 6.31882 12.3468 6.40949 12.2763 6.51517C12.2058 6.62085 12.1568 6.73944 12.1323 6.86412C12.1078 6.9888 12.1083 7.11709 12.1336 7.2416L16.2874 28.0991C16.3909 28.6221 16.9071 28.9623 17.4242 28.8579L38.2814 24.704C38.5346 24.6538 38.7531 24.5078 38.8962 24.2932C39.0392 24.0786 39.0905 23.8205 39.0402 23.5682L34.8864 2.71069C34.8426 2.49153 34.7243 2.29427 34.5517 2.15242C34.379 2.01056 34.1625 1.93189 33.939 1.93153Z" fill="#FD8127" fill-opacity="0.7"/>
<path d="M25.587 7.67065C24.5714 7.67065 23.5658 7.87069 22.6275 8.25934C21.6892 8.64799 20.8367 9.21764 20.1186 9.93577C19.4005 10.6539 18.8308 11.5064 18.4422 12.4447C18.0535 13.383 17.8535 14.3886 17.8535 15.4042C17.8535 16.4198 18.0535 17.4255 18.4422 18.3638C18.8308 19.302 19.4005 20.1546 20.1186 20.8727C20.8367 21.5908 21.6892 22.1605 22.6275 22.5491C23.5658 22.9378 24.5714 23.1378 25.587 23.1378C27.638 23.1378 29.605 22.323 31.0553 20.8727C32.5056 19.4224 33.3204 17.4553 33.3204 15.4042C33.3204 13.3532 32.5056 11.3861 31.0553 9.93577C29.605 8.48544 27.638 7.67065 25.587 7.67065ZM25.587 21.2044C22.3882 21.2044 19.7869 18.603 19.7869 15.4042C19.7869 12.2054 22.3882 9.60405 25.587 9.60405C28.7857 9.60405 31.3871 12.2054 31.3871 15.4042C31.3871 18.603 28.7857 21.2044 25.587 21.2044Z" fill="#FD8127" fill-opacity="0.7"/>
</svg>
