<svg width="71" height="60" viewBox="0 0 71 60" fill="none" xmlns="http://www.w3.org/2000/svg">
<path d="M40.9335 11.3144C44.253 9.73794 47.943 8.96437 51.6657 9.06453C51.8342 9.06918 52 9.10476 52.1538 9.16925C52.3076 9.23374 52.4463 9.32588 52.5619 9.44041C52.6775 9.55494 52.7679 9.68961 52.8278 9.83674C52.8877 9.98386 52.9159 10.1406 52.9109 10.2979C52.906 10.4552 52.8679 10.6101 52.7988 10.7537C52.7297 10.8972 52.631 11.0267 52.5084 11.1347C52.3857 11.2426 52.2415 11.327 52.0839 11.3829C51.9263 11.4388 51.7585 11.4652 51.59 11.4606C48.2963 11.3721 45.0316 12.0567 42.0948 13.4516C41.7924 13.5873 41.4451 13.607 41.1274 13.5065C40.8096 13.4061 40.5466 13.1934 40.3948 12.9141C40.243 12.6348 40.2143 12.311 40.315 12.0123C40.4157 11.7135 40.6377 11.4622 40.9335 11.3144ZM40.0815 19.1901C44.2498 16.9832 48.9867 15.8863 53.7764 16.019C54.1167 16.0293 54.4387 16.1654 54.6715 16.3974C54.9043 16.6294 55.0289 16.9382 55.0179 17.2559C55.0068 17.5737 54.861 17.8743 54.6125 18.0916C54.3641 18.309 54.0333 18.4253 53.693 18.415C49.3716 18.2959 45.098 19.2863 41.3377 21.2782C41.0423 21.4199 40.6995 21.449 40.3816 21.3596C40.0636 21.2702 39.7951 21.0691 39.6326 20.7987C39.4701 20.5283 39.4262 20.2096 39.5102 19.9096C39.5941 19.6096 39.7981 19.3517 40.0815 19.1901ZM40.0815 25.1047C44.2499 22.8982 48.9868 21.8017 53.7764 21.9348C54.1166 21.9451 54.4384 22.0811 54.6711 22.313C54.9038 22.5449 55.0283 22.8535 55.0172 23.1711C55.0062 23.4887 54.8604 23.7891 54.6121 24.0064C54.3638 24.2236 54.0332 24.3399 53.693 24.3296C49.3715 24.2114 45.098 25.2021 41.3377 27.194C41.0416 27.3411 40.6956 27.374 40.3738 27.2859C40.0521 27.1977 39.78 26.9954 39.616 26.7223C39.452 26.4492 39.409 26.127 39.4962 25.8246C39.5835 25.5223 39.7927 25.2639 40.0815 25.1047ZM40.0815 31.4002C44.2496 29.193 48.9867 28.0961 53.7764 28.2291C53.9448 28.2342 54.1105 28.2702 54.264 28.3351C54.4175 28.4 54.5559 28.4925 54.6711 28.6073C54.7863 28.7221 54.8762 28.857 54.9356 29.0042C54.9949 29.1515 55.0227 29.3082 55.0172 29.4654C55.0117 29.6227 54.9731 29.7774 54.9036 29.9207C54.8341 30.064 54.7351 30.1932 54.6121 30.3007C54.4891 30.4083 54.3447 30.4922 54.187 30.5477C54.0293 30.6031 53.8614 30.629 53.693 30.6239C49.3713 30.5058 45.0978 31.497 41.3377 33.4896C41.0416 33.6366 40.6956 33.6696 40.3738 33.5814C40.0521 33.4932 39.78 33.2909 39.616 33.0178C39.452 32.7447 39.409 32.4225 39.4962 32.1202C39.5835 31.8178 39.7927 31.5594 40.0815 31.4002ZM28.9054 13.4516C25.9687 12.0563 22.7039 11.3713 19.4102 11.4594C19.0727 11.4645 18.7467 11.3453 18.5027 11.1276C18.2587 10.9099 18.1163 10.6112 18.1066 10.2963C18.0968 9.98127 18.2203 9.67536 18.4504 9.44482C18.6805 9.21427 18.9986 9.07764 19.3358 9.06453C23.0585 8.96479 26.7486 9.73877 30.0679 11.3156C30.3698 11.4603 30.5979 11.7108 30.7025 12.0123C30.807 12.3137 30.7794 12.6415 30.6256 12.924C30.4719 13.2064 30.2046 13.4205 29.8822 13.5194C29.5598 13.6183 29.2086 13.5939 28.9054 13.4516ZM29.6625 21.2794C25.9029 19.2868 21.6297 18.2956 17.3084 18.4138C16.9683 18.4241 16.6377 18.3079 16.3894 18.0906C16.141 17.8734 15.9953 17.5729 15.9842 17.2553C15.9732 16.9378 16.0977 16.6291 16.3304 16.3972C16.5631 16.1654 16.8849 16.0293 17.225 16.019C22.0144 15.8863 26.7509 16.9831 30.9186 19.1901C31.2074 19.3493 31.418 19.6077 31.5052 19.9101C31.5925 20.2124 31.5495 20.5346 31.3855 20.8077C31.2214 21.0808 30.9494 21.2831 30.6276 21.3713C30.3058 21.4594 29.9585 21.4265 29.6625 21.2794ZM29.6625 27.194C25.9027 25.2019 21.6296 24.2112 17.3084 24.3296C17.1399 24.3347 16.972 24.3088 16.8142 24.2533C16.6564 24.1978 16.5119 24.1138 16.3889 24.0062C16.2659 23.8986 16.1668 23.7694 16.0972 23.626C16.0277 23.4826 15.9891 23.3278 15.9836 23.1705C15.9781 23.0132 16.0059 22.8564 16.0653 22.7091C16.1247 22.5618 16.2146 22.4268 16.3299 22.312C16.4452 22.1971 16.5836 22.1046 16.7372 22.0396C16.8907 21.9747 17.0565 21.9387 17.225 21.9336C22.0143 21.801 26.7508 22.8979 30.9186 25.1047C31.2074 25.2639 31.418 25.5223 31.5052 25.8246C31.5925 26.127 31.5495 26.4492 31.3855 26.7223C31.2214 26.9954 30.9494 27.1977 30.6276 27.2859C30.3058 27.374 29.9585 27.3411 29.6625 27.194ZM29.6625 33.4896C25.9028 31.4971 21.6297 30.5059 17.3084 30.6239C16.9683 30.6342 16.6377 30.518 16.3894 30.3007C16.141 30.0835 15.9953 29.783 15.9842 29.4654C15.9732 29.1479 16.0977 28.8392 16.3304 28.6073C16.5631 28.3755 16.8849 28.2394 17.225 28.2291C22.0143 28.0965 26.7508 29.1934 30.9186 31.4002C31.2074 31.5594 31.418 31.8178 31.5052 32.1202C31.5925 32.4225 31.5495 32.7447 31.3855 33.0178C31.2214 33.2909 30.9494 33.4932 30.6276 33.5814C30.3058 33.6696 29.9585 33.6366 29.6625 33.4896ZM38.0798 52.018H36.7839V45.03C36.7835 44.5846 36.5939 44.1576 36.2566 43.8427C35.9193 43.5278 35.4619 43.3507 34.9849 43.3504H33.4374C33.0971 43.3504 32.7708 43.4766 32.5301 43.7013C32.2895 43.9259 32.1543 44.2307 32.1543 44.5484C32.1543 44.8661 32.2895 45.1708 32.5301 45.3955C32.7708 45.6202 33.0971 45.7464 33.4374 45.7464H34.2176V52.018H32.9216C32.5813 52.018 32.2549 52.1442 32.0143 52.3689C31.7737 52.5935 31.6385 52.8983 31.6385 53.216C31.6385 53.5337 31.7737 53.8384 32.0143 54.0631C32.2549 54.2878 32.5813 54.414 32.9216 54.414H38.0798C38.4201 54.414 38.7465 54.2878 38.9871 54.0631C39.2278 53.8384 39.363 53.5337 39.363 53.216C39.363 52.8983 39.2278 52.5935 38.9871 52.3689C38.7465 52.1442 38.4201 52.018 38.0798 52.018Z" fill="#FD8127" fill-opacity="0.7"/>
<path d="M34.9847 41.9752C35.8719 41.9752 36.5911 41.3036 36.5911 40.4753C36.5911 39.6469 35.8719 38.9753 34.9847 38.9753C34.0974 38.9753 33.3782 39.6469 33.3782 40.4753C33.3782 41.3036 34.0974 41.9752 34.9847 41.9752Z" fill="#FD8127" fill-opacity="0.7"/>
<path d="M69.301 6.10052C68.4952 5.99988 67.6817 5.9304 66.8695 5.85612V5.76268C66.8694 5.31958 66.6971 4.89156 66.3847 4.55802C66.0723 4.22447 65.6409 4.00805 65.1706 3.94889C63.8256 3.79166 62.4741 3.68694 61.1197 3.63501L61.1184 2.42622C61.1214 1.87812 60.9092 1.34798 60.522 0.93606C60.1347 0.524139 59.5992 0.258984 59.0167 0.190733C54.7518 -0.285961 50.4268 0.133617 46.358 1.41877C42.2892 2.70392 38.5796 4.82212 35.5006 7.61839C32.4217 4.82212 28.7121 2.70392 24.6433 1.41877C20.5745 0.133617 16.2495 -0.285961 11.9846 0.190733C11.402 0.259257 10.8665 0.524656 10.4792 0.936774C10.092 1.34889 9.8798 1.87918 9.88284 2.42742L9.88155 3.63501C8.52717 3.6869 7.17571 3.79161 5.83069 3.94889C5.36036 4.00805 4.92898 4.22447 4.61657 4.55802C4.30415 4.89156 4.13192 5.31958 4.13182 5.76268V5.85612C3.3196 5.9316 2.50481 5.99988 1.699 6.10171C1.22607 6.16578 0.793818 6.38709 0.481697 6.72494C0.169576 7.0628 -0.00142749 7.49449 0.000124529 7.94066V48.8695C-0.0032287 49.147 0.0611783 49.4216 0.188456 49.6724C0.315735 49.9232 0.502538 50.1436 0.734688 50.3169C0.966837 50.4903 1.23823 50.6119 1.52826 50.6727C1.8183 50.7335 2.11935 50.7318 2.40857 50.6677C8.65574 49.2745 15.061 48.5946 21.4837 48.643C21.9639 51.7946 23.6461 54.6785 26.2211 56.7649C28.7962 58.8513 32.0912 60 35.5006 60C38.9101 60 42.2051 58.8513 44.7801 56.7649C47.3552 54.6785 49.0374 51.7946 49.5176 48.643C55.9399 48.5948 62.3447 49.2746 68.5914 50.6677C68.8806 50.7318 69.1817 50.7335 69.4717 50.6727C69.7618 50.6119 70.0332 50.4903 70.2653 50.3169C70.4975 50.1436 70.6843 49.9232 70.8115 49.6724C70.9388 49.4216 71.0032 49.147 70.9999 48.8695V7.94066C71.0015 7.49435 70.8305 7.0625 70.5184 6.72445C70.2063 6.38639 69.774 6.16485 69.301 6.10052ZM60.3037 38.2455C60.5598 38.0338 60.7649 37.7737 60.9056 37.4826C61.0463 37.1914 61.1192 36.8757 61.1197 36.5563C61.1492 24.611 61.1403 16.7161 61.1236 6.03103C62.1847 6.07895 63.2484 6.14844 64.3032 6.26464V42.7728C59.219 41.7928 53.99 41.6537 48.8542 42.3619C48.5211 41.4843 48.0893 40.6422 47.566 39.8497C51.0589 38.7334 54.7771 38.3702 58.4418 38.787C58.7753 38.8245 59.1135 38.7956 59.4342 38.7023C59.7549 38.609 60.0508 38.4533 60.3024 38.2455H60.3037ZM58.5522 2.55201C58.5624 8.85834 58.5868 23.8766 58.6035 36.391C54.3203 35.9115 49.9765 36.4102 45.9454 37.8442C43.568 35.4071 40.2997 33.889 36.7838 33.5889V9.82034C39.5751 7.135 42.989 5.08335 46.7629 3.82328C50.5368 2.5632 54.57 2.12829 58.5522 2.55201ZM12.4491 2.55201C16.4314 2.12826 20.4647 2.56327 24.2386 3.82357C28.0126 5.08386 31.4264 7.13583 34.2175 9.82154V33.5889C30.7014 33.8893 27.4331 35.4078 25.0559 37.8454C21.0401 36.4177 16.7142 35.9171 12.4465 36.3862C12.4157 23.855 12.4273 15.6367 12.4491 2.55201ZM6.69809 6.26345C7.75475 6.15129 8.81526 6.07337 9.8777 6.02983C9.86102 16.7149 9.85204 24.6098 9.88155 36.5551C9.88213 36.8745 9.95515 37.1902 10.0958 37.4813C10.2365 37.7725 10.4416 38.0325 10.6976 38.2443C10.9491 38.4524 11.2449 38.6082 11.5656 38.7016C11.8864 38.7949 12.2247 38.8236 12.5582 38.7858C16.2233 38.3682 19.9422 38.7315 23.4353 39.8485C22.912 40.641 22.4802 41.4831 22.147 42.3607C17.0114 41.6507 11.7821 41.7898 6.69809 42.7716V6.26345ZM2.5664 48.1722V8.41268C3.08735 8.35038 3.60959 8.30965 4.13182 8.25933V43.4784C4.13134 43.7526 4.19713 44.0233 4.32428 44.2704C4.45143 44.5176 4.63666 44.7347 4.86618 44.9057C5.0957 45.0767 5.3636 45.1971 5.6499 45.258C5.9362 45.319 6.23353 45.3188 6.51974 45.2575C11.4409 44.2286 16.5208 44.0382 21.5145 44.6956C21.4274 45.2101 21.373 45.7289 21.3515 46.2494C15.0313 46.2114 8.72764 46.8566 2.5664 48.1722ZM35.5006 57.6054C33.2042 57.6054 30.9594 56.9696 29.05 55.7784C27.1406 54.5873 25.6524 52.8943 24.7735 50.9134C23.8947 48.9326 23.6646 46.7529 24.1126 44.6501C24.5605 42.5472 25.6662 40.6156 27.2899 39.0994C28.9136 37.5832 30.9824 36.5507 33.2346 36.1322C35.4869 35.7138 37.8215 35.9283 39.9431 36.7486C42.0648 37.569 43.8783 38.9583 45.1543 40.7409C46.4303 42.5235 47.1115 44.6193 47.1117 46.7634C47.1087 49.6378 45.8844 52.3936 43.7076 54.4262C41.5308 56.4589 38.5793 57.6022 35.5006 57.6054ZM68.4336 48.1722C62.2728 46.8564 55.9696 46.2112 49.6498 46.2494C49.6283 45.7289 49.5739 45.2101 49.4868 44.6956C54.481 44.0383 59.5613 44.229 64.4828 45.2587C64.769 45.3193 65.0661 45.319 65.3522 45.2577C65.6382 45.1965 65.9058 45.0758 66.135 44.9048C66.3643 44.7338 66.5494 44.5168 66.6765 44.2698C66.8037 44.0229 66.8696 43.7524 66.8695 43.4784V8.25933C67.3917 8.30965 67.9139 8.35038 68.4349 8.41268L68.4336 48.1722Z" fill="#FD8127" fill-opacity="0.7"/>
</svg>
