<svg width="64" height="64" viewBox="0 0 64 64" fill="none" xmlns="http://www.w3.org/2000/svg">
<path d="M9.22747 31.5901C8.84471 31.0158 8.06844 30.8611 7.4938 31.2433C6.91967 31.6257 6.76431 32.4015 7.14694 32.9758C8.72713 35.3458 11.0553 37.963 14.0661 40.7554C14.2971 40.97 14.6009 41.089 14.9163 41.0884C15.0884 41.0887 15.2587 41.0533 15.4164 40.9846C15.5742 40.9159 15.716 40.8152 15.8329 40.6891C16.3025 40.1837 16.2727 39.3931 15.7665 38.924C12.9398 36.3024 10.6786 33.7663 9.22747 31.5901ZM7.49968 27.6852V27.6711C7.49968 26.9821 6.94181 26.428 6.25222 26.427H6.24972C5.56138 26.427 5.00238 26.9885 5 27.6765V27.721C5.01163 28.404 5.56876 28.9523 6.24984 28.9523H6.27086C6.96132 28.9406 7.51144 28.3752 7.49968 27.6852Z" fill="#FD8127" fill-opacity="0.7"/>
<path d="M63.8575 49.8059L61.5789 45.4481C60.3856 43.1656 58.8514 41.078 57.029 39.2572L50.8017 33.0342C50.0912 32.3248 49.1472 31.9337 48.1431 31.9337C47.139 31.9337 46.1946 32.3248 45.4846 33.0342C45.0946 33.4232 44.7954 33.8936 44.6085 34.4117C44.1856 34.2538 43.7378 34.1732 43.2864 34.1739C42.7387 34.1729 42.1975 34.2919 41.7008 34.5225C43.1715 32.0216 43.9152 29.7281 43.9152 27.671C43.9152 19.7511 37.9737 13.3079 30.6704 13.3079C27.4661 13.3079 24.3566 14.5862 21.9575 16.8541C19.5579 14.5862 16.4488 13.3079 13.2442 13.3079C5.9415 13.3079 0 19.7512 0 27.6709C0 32.2407 3.61869 37.9027 10.7547 44.5003C15.9404 49.2941 21.04 52.774 21.2546 52.9195C21.4618 53.0605 21.7067 53.1359 21.9574 53.1359C22.2081 53.1359 22.453 53.0605 22.6602 52.9195C22.8474 52.7926 27.0387 49.9328 31.6819 45.8346L35.9548 50.1046L34.7504 49.7453C32.7149 49.1378 30.5992 50.2413 29.9341 52.2579C29.3655 53.9835 30.0515 55.8506 31.6028 56.7985L38.5543 61.0449C40.1934 62.0482 42.0157 62.7159 43.9153 63.0093L50.1841 63.9839C50.2492 63.9941 50.3136 63.999 50.3776 63.999C50.6756 63.9985 50.9637 63.8917 51.1899 63.6978C51.416 63.504 51.5655 63.2358 51.6114 62.9415C51.7174 62.2598 51.2504 61.6215 50.5681 61.5152L44.2993 60.541C42.7257 60.2978 41.2162 59.7446 39.8583 58.9136L32.9069 54.6671C32.6375 54.5037 32.4316 54.2536 32.3229 53.9579C32.2143 53.6623 32.2093 53.3385 32.3089 53.0396C32.4211 52.6935 32.6649 52.4052 32.9877 52.2368C33.3106 52.0684 33.6866 52.0334 34.035 52.1393L39.978 53.9131C40.2447 53.9928 40.5303 53.9812 40.7896 53.8803C41.049 53.7794 41.2672 53.5949 41.4097 53.356C41.5522 53.1173 41.6109 52.8378 41.5765 52.5619C41.542 52.2861 41.4164 52.0296 41.2196 51.8332L28.3692 38.9916C27.8781 38.501 27.8781 37.7021 28.3692 37.2114C28.4859 37.0942 28.6247 37.0012 28.7776 36.938C28.9305 36.8747 29.0944 36.8423 29.2598 36.8427C29.5965 36.8427 29.9128 36.9736 30.1507 37.2115L41.8163 48.869C42.3043 49.3567 43.0959 49.3562 43.584 48.869C44.0722 48.3812 44.0722 47.5902 43.584 47.1024L37.7221 41.2446C37.6048 41.1279 37.5118 40.9892 37.4485 40.8364C37.3852 40.6836 37.3528 40.5198 37.3533 40.3544C37.3533 40.0179 37.4842 39.7021 37.7223 39.4643C37.8389 39.3471 37.9777 39.2541 38.1306 39.1908C38.2835 39.1275 38.4474 39.0951 38.6129 39.0956C38.7783 39.0951 38.9421 39.1275 39.095 39.1908C39.2478 39.2541 39.3865 39.3471 39.5031 39.4643L40.6255 40.5858C40.626 40.5863 40.627 40.5868 40.6275 40.5878L45.365 45.3221C45.8531 45.8099 46.6446 45.8099 47.1328 45.3221C47.249 45.2062 47.3412 45.0686 47.404 44.917C47.4668 44.7654 47.499 44.6029 47.4987 44.4389C47.499 44.2748 47.4668 44.1123 47.404 43.9607C47.3412 43.8091 47.249 43.6714 47.1328 43.5555L42.3953 38.8212C41.9042 38.3305 41.9042 37.5317 42.3953 37.041C42.5119 36.9237 42.6507 36.8307 42.8036 36.7674C42.9565 36.7042 43.1204 36.6718 43.2859 36.6722C43.6221 36.6722 43.9388 36.8032 44.1767 37.041L48.9143 41.7753C49.4024 42.263 50.1939 42.263 50.6821 41.7753C51.1702 41.2876 51.1702 40.4966 50.6821 40.0087L47.252 36.581C47.1347 36.4644 47.0416 36.3257 46.9783 36.1729C46.915 36.0202 46.8826 35.8564 46.883 35.691C46.883 35.355 47.014 35.039 47.252 34.8008C47.3688 34.6836 47.5076 34.5907 47.6604 34.5274C47.8133 34.4641 47.9772 34.4317 48.1426 34.432C48.4789 34.432 48.7956 34.5635 49.0335 34.8013L55.2608 41.0243C56.9039 42.6658 58.287 44.5479 59.3627 46.6059L61.6416 50.9637C61.9611 51.5749 62.7166 51.8118 63.3282 51.4919C63.9405 51.1722 64.1777 50.4178 63.8575 49.8059ZM35.2161 38.7397L31.9185 35.4448C31.2085 34.7354 30.2645 34.3443 29.2599 34.3443C28.2559 34.3443 27.3119 34.7354 26.6014 35.4449C25.1355 36.9096 25.1355 39.2935 26.6014 40.7582L29.9102 44.0648C26.5145 47.0497 23.3262 49.3879 21.9571 50.3622C20.3823 49.2419 16.4002 46.3162 12.4528 42.6669C5.9415 36.6475 2.49981 31.4621 2.49981 27.6715C2.49981 21.1291 7.31993 15.8069 13.2443 15.8069C16.2048 15.8069 18.9634 17.1101 21.0121 19.4772C21.1295 19.6127 21.2746 19.7214 21.4377 19.7959C21.6008 19.8704 21.7781 19.909 21.9574 19.909C22.1367 19.909 22.314 19.8704 22.4771 19.7959C22.6402 19.7214 22.7853 19.6127 22.9027 19.4772C24.9514 17.1101 27.71 15.8069 30.6705 15.8069C36.5949 15.8069 41.4151 21.1291 41.4151 27.6715C41.4151 30.2115 39.8837 33.3584 36.8657 37.0264C36.5297 37.2031 36.2225 37.4297 35.9543 37.6982C35.6506 38.0007 35.4009 38.353 35.2161 38.7397ZM21.9573 2.49847C22.286 2.49847 22.6085 2.36472 22.841 2.13222C23.0735 1.89972 23.207 1.5776 23.207 1.24898C23.207 0.919362 23.0736 0.598117 22.841 0.366245C22.6065 0.132196 22.2887 0.000510001 21.9573 0C21.6259 0.000404243 21.3082 0.132114 21.0739 0.366245C20.84 0.600672 20.7083 0.917949 20.7074 1.24898C20.7086 1.58015 20.8402 1.89754 21.0739 2.13235C21.3087 2.36583 21.6261 2.4973 21.9573 2.49847ZM29.0133 10.638C29.1774 10.6382 29.34 10.606 29.4917 10.5432C29.6433 10.4805 29.7811 10.3884 29.8971 10.2724L32.9538 7.21765C33.4419 6.72991 33.4419 5.93892 32.9538 5.45105C32.4657 4.96318 31.6742 4.96331 31.186 5.45105L28.1293 8.50576C27.6411 8.9935 27.6411 9.78449 28.1293 10.2724C28.2452 10.3885 28.383 10.4806 28.5347 10.5434C28.6864 10.6061 28.8491 10.6383 29.0133 10.638ZM14.0094 10.263C14.2537 10.5067 14.5733 10.6287 14.8933 10.6287C15.2132 10.6287 15.5335 10.5067 15.7772 10.263C16.2653 9.77524 16.2653 8.98425 15.7772 8.49651L12.7293 5.45018C12.2411 4.96231 11.4497 4.96231 10.961 5.45018C10.4729 5.93792 10.4729 6.72891 10.961 7.21665L14.0094 10.263ZM21.9573 5.08443C21.2672 5.08443 20.7073 5.64342 20.7073 6.33341V10.2425C20.7073 10.9325 21.2672 11.4916 21.9571 11.4916C22.6476 11.4916 23.2075 10.9325 23.2075 10.2425V6.33341C23.2075 5.64342 22.6477 5.08443 21.9573 5.08443Z" fill="#FD8127" fill-opacity="0.7"/>
</svg>
