<svg width="54" height="55" viewBox="0 0 54 55" fill="none" xmlns="http://www.w3.org/2000/svg">
<path d="M53.142 29.1587L35.796 25.165C35.5199 25.1066 35.2324 25.1624 34.9966 25.3201C34.7609 25.4778 34.5963 25.7245 34.539 26.0059C34.4817 26.2873 34.5364 26.5804 34.6912 26.8207C34.8459 27.061 35.0879 27.2288 35.364 27.2872L48.054 30.2229L27.054 34.9628L6 30.2229L18.138 27.4095C18.4141 27.3511 18.6561 27.1833 18.8108 26.9431C18.9656 26.7028 19.0203 26.4097 18.963 26.1282C18.9057 25.8468 18.7411 25.6001 18.5054 25.4424C18.2696 25.2847 17.9821 25.2289 17.706 25.2873L0.858 29.1587C0.619543 29.2141 0.4059 29.3487 0.250608 29.5413C0.0953157 29.734 0.00716726 29.9737 0 30.2229V47.9592C0.00716726 48.2084 0.0953157 48.4481 0.250608 48.6407C0.4059 48.8333 0.619543 48.9679 0.858 49.0234L26.784 54.9498C26.8514 54.9828 26.9252 55 27 55C27.0748 55 27.1486 54.9828 27.216 54.9498L53.142 49.0234C53.3834 48.9672 53.5992 48.8299 53.7549 48.6335C53.9105 48.4372 53.9968 48.1932 54 47.9409V30.2045C53.9928 29.9553 53.9047 29.7156 53.7494 29.523C53.5941 29.3304 53.3805 29.1958 53.142 29.1404V29.1587ZM35.676 7.63047L37.392 5.88131C37.4885 5.7785 37.5642 5.65732 37.6148 5.52469C37.6654 5.39206 37.6898 5.25058 37.6868 5.10831C37.6837 4.96605 37.6532 4.82579 37.597 4.69555C37.5407 4.56531 37.4599 4.44764 37.359 4.34925C37.2581 4.25087 37.1393 4.17369 37.0092 4.12214C36.879 4.07058 36.7402 4.04565 36.6007 4.04878C36.4611 4.0519 36.3235 4.08301 36.1957 4.14034C36.068 4.19767 35.9525 4.28009 35.856 4.38289L34.14 6.13206C33.162 7.12896 34.692 8.62738 35.676 7.63047ZM18.144 7.63047C18.2386 7.74057 18.3541 7.82998 18.4836 7.89328C18.613 7.95658 18.7538 7.99246 18.8972 7.99876C19.0407 8.00506 19.1839 7.98164 19.3182 7.92992C19.4525 7.8782 19.5751 7.79925 19.6787 7.69785C19.7822 7.59645 19.8645 7.4747 19.9206 7.33996C19.9767 7.20522 20.0053 7.06029 20.0049 6.91393C20.0045 6.76758 19.9749 6.62283 19.918 6.48844C19.8612 6.35405 19.7781 6.23282 19.674 6.13206L17.958 4.38289C17.7599 4.19119 17.4969 4.08469 17.2237 4.08554C16.9505 4.08639 16.6881 4.19452 16.4911 4.38745C16.2941 4.58038 16.1776 4.84327 16.1659 5.12148C16.1541 5.3997 16.248 5.67182 16.428 5.88131L18.144 7.63047ZM27.948 3.50831V1.01299C27.9278 0.737569 27.8061 0.480122 27.6075 0.292259C27.4089 0.104395 27.148 0 26.877 0C26.606 0 26.3451 0.104395 26.1465 0.292259C25.9479 0.480122 25.8262 0.737569 25.806 1.01299V3.50831C25.8262 3.78373 25.9479 4.04118 26.1465 4.22904C26.3451 4.4169 26.606 4.5213 26.877 4.5213C27.148 4.5213 27.4089 4.4169 27.6075 4.22904C27.8061 4.04118 27.9278 3.78373 27.948 3.50831ZM38.25 16.1806H40.698C40.9828 16.1806 41.256 16.0653 41.4574 15.86C41.6588 15.6547 41.772 15.3762 41.772 15.0858C41.772 14.7955 41.6588 14.517 41.4574 14.3117C41.256 14.1064 40.9828 13.9911 40.698 13.9911H38.25C37.9652 13.9911 37.692 14.1064 37.4906 14.3117C37.2892 14.517 37.176 14.7955 37.176 15.0858C37.176 15.3762 37.2892 15.6547 37.4906 15.86C37.692 16.0653 37.9652 16.1806 38.25 16.1806ZM13.2 16.1806H15.654C15.9388 16.1806 16.212 16.0653 16.4134 15.86C16.6148 15.6547 16.728 15.3762 16.728 15.0858C16.728 14.7955 16.6148 14.517 16.4134 14.3117C16.212 14.1064 15.9388 13.9911 15.654 13.9911H13.2C12.9152 13.9911 12.642 14.1064 12.4406 14.3117C12.2392 14.517 12.126 14.7955 12.126 15.0858C12.126 15.3762 12.2392 15.6547 12.4406 15.86C12.642 16.0653 12.9152 16.1806 13.2 16.1806ZM21.66 24.9754V27.6603C21.6679 28.8673 22.1422 30.0225 22.9801 30.8754C23.8179 31.7284 24.9519 32.2103 26.136 32.2167H27.546C28.1355 32.2249 28.7207 32.1127 29.267 31.8867C29.8133 31.6607 30.3097 31.3255 30.7268 30.9008C31.144 30.4762 31.4735 29.9706 31.696 29.4141C31.9184 28.8575 32.0293 28.2612 32.022 27.6603V24.9754C31.998 22.107 36 21.3425 36 15.7403C35.9387 13.2959 34.9431 10.9727 33.2254 9.26589C31.5077 7.55913 29.2038 6.60391 26.805 6.60391C24.4062 6.60391 22.1023 7.55913 20.3846 9.26589C18.6669 10.9727 17.6713 13.2959 17.61 15.7403C17.61 21.3608 21.654 22.1681 21.654 24.9754H21.66ZM27.546 30.0333H26.112C25.4946 30.0333 24.9024 29.7833 24.4659 29.3383C24.0293 28.8932 23.784 28.2896 23.784 27.6603V26.9753H29.85V27.6603C29.85 27.9719 29.7898 28.2805 29.6728 28.5684C29.5558 28.8563 29.3843 29.1179 29.1681 29.3383C28.952 29.5586 28.6953 29.7334 28.4129 29.8527C28.1304 29.9719 27.8277 30.0333 27.522 30.0333H27.546ZM26.868 8.56622C28.7226 8.58396 30.4952 9.34782 31.7999 10.6915C33.1046 12.0351 33.8357 13.8497 33.834 15.7403C33.834 20.7309 30 20.7309 29.85 24.7919H27.888V17.8013L30.342 15.1164C31.26 14.0584 29.664 12.56 28.746 13.618L26.784 15.7403L24.822 13.618C23.904 12.56 22.314 14.0584 23.292 15.1164L25.746 17.8013V24.7919H23.784C23.658 20.737 19.734 20.6697 19.734 15.7403C19.7371 14.7929 19.9237 13.8554 20.283 12.9817C20.6423 12.1079 21.1673 11.3151 21.8279 10.6486C22.4884 9.98211 23.2715 9.45509 24.1323 9.09774C24.9931 8.7404 25.9146 8.55977 26.844 8.56622H26.868ZM47.628 42.9502L38.922 44.9501C38.664 45.0132 38.4376 45.1704 38.2856 45.392C38.1335 45.6136 38.0662 45.8842 38.0965 46.1529C38.1268 46.4215 38.2525 46.6696 38.4499 46.8503C38.6473 47.0309 38.9027 47.1317 39.168 47.1335L48.054 45.0725C48.1907 45.044 48.3206 44.9883 48.4362 44.9086C48.5518 44.8289 48.6508 44.7268 48.7277 44.6082C48.8046 44.4895 48.8578 44.3565 48.8843 44.2168C48.9107 44.0772 48.91 43.9336 48.882 43.7942C48.854 43.6549 48.7994 43.5225 48.7212 43.4047C48.6431 43.2869 48.5429 43.1859 48.4265 43.1075C48.31 43.0291 48.1796 42.9749 48.0426 42.9479C47.9056 42.9209 47.7647 42.9217 47.628 42.9502ZM10.428 33.4643L15 34.4613V42.9502L10.422 41.8922L10.428 33.4643ZM2.148 31.5929L8.274 32.9628V42.7484C8.28247 42.9965 8.37121 43.2349 8.5264 43.4262C8.68159 43.6176 8.89451 43.7513 9.132 43.8065L15.876 45.366C16.0312 45.4047 16.1931 45.4063 16.349 45.3708C16.505 45.3352 16.6507 45.2634 16.775 45.161C16.8993 45.0586 16.9986 44.9284 17.0654 44.7804C17.1322 44.6325 17.1646 44.4708 17.16 44.308V34.9628L25.926 36.9627V52.4973L2.148 47.0724V31.5929ZM28.074 52.4973V36.9627L51.852 31.5929V47.0724L28.074 52.4973Z" fill="#FD8127" fill-opacity="0.7"/>
</svg>
